/* XPM */
static char * mod_exploit_xpm[] = {
"16 15 87 1",
" 	c None",
".	c #F21B00",
"+	c #EF1B00",
"@	c #F22407",
"#	c #ED2307",
"$	c #F74626",
"%	c #F34E31",
"&	c #E41800",
"*	c #EF1E02",
"=	c #FD7854",
"-	c #E21B02",
";	c #F23B1D",
">	c #FE6437",
",	c #EA3C22",
"'	c #E42D15",
")	c #FE1F00",
"!	c #FB1E00",
"~	c #F81D00",
"{	c #F52406",
"]	c #F33215",
"^	c #F03115",
"/	c #FB714E",
"(	c #FA7655",
"_	c #E12D15",
":	c #DE2C15",
"<	c #D51B06",
"[	c #D5230E",
"}	c #C61100",
"|	c #C31000",
"1	c #FD1F00",
"2	c #FB4527",
"3	c #FE7F5F",
"4	c #FE734D",
"5	c #FE5E32",
"6	c #FE6E46",
"7	c #FB6A49",
"8	c #D92812",
"9	c #C20F00",
"0	c #F52203",
"a	c #FD5932",
"b	c #FE5228",
"c	c #FE5229",
"d	c #FB4C29",
"e	c #CF1703",
"f	c #EF2508",
"g	c #FA3C16",
"h	c #FE471E",
"i	c #FE4720",
"j	c #F33C1C",
"k	c #D11602",
"l	c #EA1E02",
"m	c #FE3D15",
"n	c #FE3D17",
"o	c #D51803",
"p	c #F0573E",
"q	c #EF2103",
"r	c #FE340E",
"s	c #FE330E",
"t	c #DC1B04",
"u	c #EA3A20",
"v	c #F32203",
"w	c #FE2C08",
"x	c #FE2909",
"y	c #F82508",
"z	c #F82607",
"A	c #FE2B08",
"B	c #E71C04",
"C	c #BF0F00",
"D	c #E72E15",
"E	c #FA2102",
"F	c #FB1F03",
"G	c #E21801",
"H	c #CF1300",
"I	c #CB1100",
"J	c #DB1601",
"K	c #FB2203",
"L	c #F71F03",
"M	c #BC0E00",
"N	c #E11902",
"O	c #EA1700",
"P	c #D61400",
"Q	c #C51000",
"R	c #DC1400",
"S	c #BE0E00",
"T	c #D91500",
"U	c #BB0D00",
"V	c #B70D00",
"       .+       ",
"       @#       ",
"      +$%&      ",
"      *==-      ",
"      ;>>,'     ",
")!~{]^/>>(_:<[}|",
"1234455555564789",
"  0abbbbbbbcde  ",
"   fghhhhhijk   ",
"    lmmmmmno    ",
"   pqrrsrrst    ",
"   uvwxyzAwBC   ",
"   DEFGHIJKLM   ",
"   NOP    QRS   ",
"   TP      UV   "};
