<svg width="421" height="92" viewBox="0 0 421 92" fill="none" xmlns="http://www.w3.org/2000/svg">
<path d="M136.44 5.57609C136.44 2.36157 133.879 0.00195312 129.413 0.00195312H120.32L115.86 19.658H120.931L122.463 12.9049H125.433L128.374 19.658H133.436L130.289 12.5826C134.059 12.0103 136.436 9.08019 136.436 5.57782L136.44 5.57609ZM128.316 8.79234H123.397L124.459 4.11103H129.011C130.511 4.11103 131.39 4.89699 131.39 6.04147C131.39 7.54273 130.257 8.79234 128.316 8.79234Z" fill="black"/>
<path d="M147.625 0.00183105L135.85 19.6578H140.91L142.879 16.3985L152.255 16.4037L152.993 19.6578H158.051L153.616 0.00183105H147.625ZM145.338 12.2963L149.68 5.052L151.323 12.2963H145.338Z" fill="black"/>
<path d="M173.481 0.00172361H164.916L160.456 19.6577H165.513L167.06 12.8977L172.712 12.9029C177.542 12.9029 180.469 9.36435 180.469 5.64653C180.469 2.32342 177.798 0 173.48 0L173.481 0.00172361ZM172.495 8.79211H167.998L169.053 4.1108H172.971C174.509 4.1108 175.46 4.8261 175.46 6.04124C175.46 7.5425 174.288 8.79211 172.497 8.79211H172.495Z" fill="black"/>
<path d="M189.998 0.00183105H184.928L180.468 19.6578H185.54L189.998 0.00183105Z" fill="black"/>
<path d="M226.547 0.00183105H210.564C210.807 0.241412 211.044 0.487888 211.266 0.748152C213.058 2.84923 214.005 5.49496 214.005 8.40096C214.005 12.8841 212.053 16.9294 208.926 19.6578H218.714L223.36 8.45439H217.533L218.509 4.10918H230.066L223.997 19.6578H226.371C231.919 19.6923 235.668 15.2316 235.668 9.81259C235.668 4.39358 232.096 0.00183105 226.547 0.00183105Z" fill="#E85E26"/>
<path d="M208.475 3.20614C206.726 1.15505 203.858 0.00195312 200.471 0.00195312H193.973L189.513 19.658H197.688C200.858 19.658 203.308 18.9754 205.168 17.8826C208.957 15.6575 210.302 11.7311 210.302 8.40109C210.302 6.32069 209.633 4.56606 208.474 3.20614H208.475ZM198.313 15.5523H195.515L198.11 4.11275H200.748C203.652 4.11103 205.281 6.219 205.281 8.85267C205.281 12.3999 202.672 15.5506 198.313 15.5506V15.5523Z" fill="black"/>
<path d="M0 39.6C0 20.9324 0 11.5986 5.79929 5.79929C11.5986 0 20.9324 0 39.6 0C58.2676 0 67.6014 0 73.4007 5.79929C79.2 11.5986 79.2 20.9324 79.2 39.6C79.2 58.2676 79.2 67.6014 73.4007 73.4007C67.6014 79.2 58.2676 79.2 39.6 79.2C20.9324 79.2 11.5986 79.2 5.79929 73.4007C0 67.6014 0 58.2676 0 39.6Z" fill="#3258E2"/>
<path d="M59.1147 31.9913C59.1147 36.2736 59.0788 40.556 59.1327 44.8383C59.1507 46.2541 58.7731 47.5126 58.0719 48.7012C57.083 50.4316 55.8603 51.9872 54.3858 53.3156C51.9765 55.5005 49.5131 57.6504 47.0138 59.7304C44.9101 61.4783 42.6984 63.1213 40.5228 64.8168C40.2171 65.044 39.8755 65.2188 39.5518 65.446C39.2282 65.6733 38.9405 65.6383 38.6349 65.4111C37.8797 64.8518 37.0705 64.3449 36.3333 63.7681C32.6832 60.884 29.0152 58.0175 25.4011 55.0635C23.3693 53.403 21.5892 51.4629 20.2047 49.243C19.4136 47.9496 19 46.5862 19 45.0656C19.036 36.1163 19.018 27.1671 19 18.2178C19 17.8333 19.1079 17.641 19.4855 17.5187C22.5242 16.4699 25.6349 15.6134 28.8174 15.0541C30.8132 14.7045 32.8271 14.4074 34.8409 14.1976C37.4661 13.9529 40.1092 13.9355 42.7524 14.1452C48.2005 14.5822 53.4868 15.7358 58.6293 17.5012C58.9889 17.6235 59.0788 17.7983 59.0788 18.1479C59.0788 22.7623 59.0788 27.3943 59.0788 32.0087L59.1147 31.9913ZM38.9765 29.9288C38.8506 29.8239 38.7607 29.754 38.6708 29.684C35.686 26.9748 32.6653 24.2655 29.6985 21.5214C29.1051 20.962 28.5297 20.6998 27.6846 20.7348C26.0484 20.8047 24.4122 20.7698 22.7759 20.7348C22.3983 20.7348 22.2545 20.8572 22.2905 21.2067C22.2905 21.3291 22.2905 21.434 22.2905 21.5563C22.2905 27.8662 22.2905 34.1587 22.2905 40.4686C22.2905 41.8144 22.3804 43.1778 22.5242 44.5237C22.704 46.2716 23.1895 47.9496 24.2503 49.4353C25.5629 51.2531 27.1272 52.8437 28.7635 54.3818C28.8174 54.4343 28.8893 54.4518 29.0332 54.5392V30.7153C29.195 30.8377 29.2849 30.9075 29.3748 30.9775C31.3707 32.7254 33.3665 34.4733 35.3624 36.2212C35.5781 36.396 35.65 36.6057 35.65 36.8679C35.65 39.9267 35.65 42.9681 35.65 46.0269C35.65 46.4289 35.7759 46.5513 36.1715 46.5338C37.8976 46.5163 39.6058 46.5163 41.3319 46.4988C41.6916 46.4988 41.8714 46.3182 41.8714 45.957C41.8714 42.8632 41.8714 39.7694 41.8714 36.6756C41.8714 36.4834 41.9613 36.2212 42.1051 36.1163C44.2448 34.4034 46.3845 32.7254 48.5422 31.0299C48.6141 30.9775 48.7039 30.9251 48.8658 30.8377V54.5217C48.9737 54.4343 49.0456 54.4168 49.0815 54.3644C50.2143 53.1234 51.3651 51.9173 52.4619 50.6414C53.307 49.6625 54.0622 48.6138 54.4937 47.3728C55.1051 45.6598 55.3388 43.8945 55.3388 42.0941C55.3748 35.1549 55.3388 28.2158 55.3748 21.2592C55.3748 20.9446 55.2849 20.8396 54.9432 20.8396C53.0193 20.8396 51.0954 20.8396 49.1895 20.8396C48.8298 20.8396 48.5781 20.9446 48.3444 21.1718C46.2946 23.0945 44.2448 24.9996 42.195 26.9223C41.1341 27.9187 40.0733 28.915 38.9585 29.9288H38.9765Z" fill="white"/>
<path d="M115.605 32.92H125.82L139.5 66.31H140.04L153.72 32.92H163.935V79H155.925V47.3425H155.497L142.762 78.865H136.777L124.042 47.275H123.615V79H115.605V32.92ZM186.127 79.675C182.662 79.675 179.67 78.955 177.15 77.515C174.645 76.06 172.717 74.005 171.367 71.35C170.017 68.68 169.342 65.5375 169.342 61.9225C169.342 58.3675 170.017 55.2475 171.367 52.5625C172.732 49.8625 174.637 47.7625 177.082 46.2625C179.527 44.7475 182.4 43.99 185.7 43.99C187.83 43.99 189.84 44.335 191.73 45.025C193.635 45.7 195.315 46.75 196.77 48.175C198.24 49.6 199.395 51.415 200.235 53.62C201.075 55.81 201.495 58.42 201.495 61.45V63.9475H173.167V58.4575H193.687C193.672 56.8975 193.335 55.51 192.675 54.295C192.015 53.065 191.092 52.0975 189.907 51.3925C188.737 50.6875 187.372 50.335 185.812 50.335C184.147 50.335 182.685 50.74 181.425 51.55C180.165 52.345 179.182 53.395 178.477 54.7C177.787 55.99 177.435 57.4075 177.42 58.9525V63.745C177.42 65.755 177.787 67.48 178.522 68.92C179.257 70.345 180.285 71.44 181.605 72.205C182.925 72.955 184.47 73.33 186.24 73.33C187.425 73.33 188.497 73.165 189.457 72.835C190.417 72.49 191.25 71.9875 191.955 71.3275C192.66 70.6675 193.192 69.85 193.552 68.875L201.157 69.73C200.677 71.74 199.762 73.495 198.412 74.995C197.077 76.48 195.367 77.635 193.282 78.46C191.197 79.27 188.812 79.675 186.127 79.675ZM223.805 44.44V50.74H203.938V44.44H223.805ZM208.843 36.16H216.988V68.605C216.988 69.7 217.153 70.54 217.483 71.125C217.828 71.695 218.278 72.085 218.833 72.295C219.388 72.505 220.003 72.61 220.678 72.61C221.188 72.61 221.653 72.5725 222.073 72.4975C222.508 72.4225 222.838 72.355 223.063 72.295L224.435 78.6625C224 78.8125 223.378 78.9775 222.568 79.1575C221.773 79.3375 220.798 79.4425 219.643 79.4725C217.603 79.5325 215.765 79.225 214.13 78.55C212.495 77.86 211.198 76.795 210.238 75.355C209.293 73.915 208.828 72.115 208.843 69.955V36.16ZM238.725 79.6975C236.535 79.6975 234.562 79.3075 232.807 78.5275C231.067 77.7325 229.687 76.5625 228.667 75.0175C227.662 73.4725 227.16 71.5675 227.16 69.3025C227.16 67.3525 227.52 65.74 228.24 64.465C228.96 63.19 229.942 62.17 231.187 61.405C232.432 60.64 233.835 60.0625 235.395 59.6725C236.97 59.2675 238.597 58.975 240.277 58.795C242.302 58.585 243.945 58.3975 245.205 58.2325C246.465 58.0525 247.38 57.7825 247.95 57.4225C248.535 57.0475 248.827 56.47 248.827 55.69V55.555C248.827 53.86 248.325 52.5475 247.32 51.6175C246.315 50.6875 244.867 50.2225 242.977 50.2225C240.982 50.2225 239.4 50.6575 238.23 51.5275C237.075 52.3975 236.295 53.425 235.89 54.61L228.285 53.53C228.885 51.43 229.875 49.675 231.255 48.265C232.635 46.84 234.322 45.775 236.317 45.07C238.312 44.35 240.517 43.99 242.932 43.99C244.597 43.99 246.255 44.185 247.905 44.575C249.555 44.965 251.062 45.61 252.427 46.51C253.792 47.395 254.887 48.6025 255.712 50.1325C256.552 51.6625 256.972 53.575 256.972 55.87V79H249.142V74.2525H248.872C248.377 75.2125 247.68 76.1125 246.78 76.9525C245.895 77.7775 244.777 78.445 243.427 78.955C242.092 79.45 240.525 79.6975 238.725 79.6975ZM240.84 73.7125C242.475 73.7125 243.892 73.39 245.092 72.745C246.292 72.085 247.215 71.215 247.86 70.135C248.52 69.055 248.85 67.8775 248.85 66.6025V62.53C248.595 62.74 248.16 62.935 247.545 63.115C246.945 63.295 246.27 63.4525 245.52 63.5875C244.77 63.7225 244.027 63.8425 243.292 63.9475C242.557 64.0525 241.92 64.1425 241.38 64.2175C240.165 64.3825 239.077 64.6525 238.117 65.0275C237.157 65.4025 236.4 65.9275 235.845 66.6025C235.29 67.2625 235.012 68.1175 235.012 69.1675C235.012 70.6675 235.56 71.8 236.655 72.565C237.75 73.33 239.145 73.7125 240.84 73.7125ZM290.64 53.575L283.215 54.385C283.005 53.635 282.637 52.93 282.112 52.27C281.602 51.61 280.912 51.0775 280.042 50.6725C279.172 50.2675 278.107 50.065 276.847 50.065C275.152 50.065 273.727 50.4325 272.572 51.1675C271.432 51.9025 270.87 52.855 270.885 54.025C270.87 55.03 271.237 55.8475 271.987 56.4775C272.752 57.1075 274.012 57.625 275.767 58.03L281.662 59.29C284.932 59.995 287.362 61.1125 288.952 62.6425C290.557 64.1725 291.367 66.175 291.382 68.65C291.367 70.825 290.73 72.745 289.47 74.41C288.225 76.06 286.492 77.35 284.272 78.28C282.052 79.21 279.502 79.675 276.622 79.675C272.392 79.675 268.987 78.79 266.407 77.02C263.827 75.235 262.29 72.7525 261.795 69.5725L269.737 68.8075C270.097 70.3675 270.862 71.545 272.032 72.34C273.202 73.135 274.725 73.5325 276.6 73.5325C278.535 73.5325 280.087 73.135 281.257 72.34C282.442 71.545 283.035 70.5625 283.035 69.3925C283.035 68.4025 282.652 67.585 281.887 66.94C281.137 66.295 279.967 65.8 278.377 65.455L272.482 64.2175C269.167 63.5275 266.715 62.365 265.125 60.73C263.535 59.08 262.747 56.995 262.762 54.475C262.747 52.345 263.325 50.5 264.495 48.94C265.68 47.365 267.322 46.15 269.422 45.295C271.537 44.425 273.975 43.99 276.735 43.99C280.785 43.99 283.972 44.8525 286.297 46.5775C288.637 48.3025 290.085 50.635 290.64 53.575ZM296.261 91.96V44.44H304.271V50.155H304.744C305.164 49.315 305.756 48.4225 306.521 47.4775C307.286 46.5175 308.321 45.7 309.626 45.025C310.931 44.335 312.596 43.99 314.621 43.99C317.291 43.99 319.699 44.6725 321.844 46.0375C324.004 47.3875 325.714 49.39 326.974 52.045C328.249 54.685 328.886 57.925 328.886 61.765C328.886 65.56 328.264 68.785 327.019 71.44C325.774 74.095 324.079 76.12 321.934 77.515C319.789 78.91 317.359 79.6075 314.644 79.6075C312.664 79.6075 311.021 79.2775 309.716 78.6175C308.411 77.9575 307.361 77.1625 306.566 76.2325C305.786 75.2875 305.179 74.395 304.744 73.555H304.406V91.96H296.261ZM304.249 61.72C304.249 63.955 304.564 65.9125 305.194 67.5925C305.839 69.2725 306.761 70.585 307.961 71.53C309.176 72.46 310.646 72.925 312.371 72.925C314.171 72.925 315.679 72.445 316.894 71.485C318.109 70.51 319.024 69.1825 319.639 67.5025C320.269 65.8075 320.584 63.88 320.584 61.72C320.584 59.575 320.276 57.67 319.661 56.005C319.046 54.34 318.131 53.035 316.916 52.09C315.701 51.145 314.186 50.6725 312.371 50.6725C310.631 50.6725 309.154 51.13 307.939 52.045C306.724 52.96 305.801 54.2425 305.171 55.8925C304.556 57.5425 304.249 59.485 304.249 61.72ZM342.169 32.92V79H334.024V32.92H342.169ZM363.782 79.675C360.407 79.675 357.482 78.9325 355.007 77.4475C352.532 75.9625 350.612 73.885 349.247 71.215C347.897 68.545 347.222 65.425 347.222 61.855C347.222 58.285 347.897 55.1575 349.247 52.4725C350.612 49.7875 352.532 47.7025 355.007 46.2175C357.482 44.7325 360.407 43.99 363.782 43.99C367.157 43.99 370.082 44.7325 372.557 46.2175C375.032 47.7025 376.944 49.7875 378.294 52.4725C379.659 55.1575 380.342 58.285 380.342 61.855C380.342 65.425 379.659 68.545 378.294 71.215C376.944 73.885 375.032 75.9625 372.557 77.4475C370.082 78.9325 367.157 79.675 363.782 79.675ZM363.827 73.15C365.657 73.15 367.187 72.6475 368.417 71.6425C369.647 70.6225 370.562 69.2575 371.162 67.5475C371.777 65.8375 372.084 63.9325 372.084 61.8325C372.084 59.7175 371.777 57.805 371.162 56.095C370.562 54.37 369.647 52.9975 368.417 51.9775C367.187 50.9575 365.657 50.4475 363.827 50.4475C361.952 50.4475 360.392 50.9575 359.147 51.9775C357.917 52.9975 356.994 54.37 356.379 56.095C355.779 57.805 355.479 59.7175 355.479 61.8325C355.479 63.9325 355.779 65.8375 356.379 67.5475C356.994 69.2575 357.917 70.6225 359.147 71.6425C360.392 72.6475 361.952 73.15 363.827 73.15ZM385.418 79V44.44H393.563V79H385.418ZM389.513 39.535C388.223 39.535 387.113 39.1075 386.183 38.2525C385.253 37.3825 384.788 36.34 384.788 35.125C384.788 33.895 385.253 32.8525 386.183 31.9975C387.113 31.1275 388.223 30.6925 389.513 30.6925C390.818 30.6925 391.928 31.1275 392.843 31.9975C393.773 32.8525 394.238 33.895 394.238 35.125C394.238 36.34 393.773 37.3825 392.843 38.2525C391.928 39.1075 390.818 39.535 389.513 39.535ZM417.358 44.44V50.74H397.491V44.44H417.358ZM402.396 36.16H410.541V68.605C410.541 69.7 410.706 70.54 411.036 71.125C411.381 71.695 411.831 72.085 412.386 72.295C412.941 72.505 413.556 72.61 414.231 72.61C414.741 72.61 415.206 72.5725 415.626 72.4975C416.061 72.4225 416.391 72.355 416.616 72.295L417.988 78.6625C417.553 78.8125 416.931 78.9775 416.121 79.1575C415.326 79.3375 414.351 79.4425 413.196 79.4725C411.156 79.5325 409.318 79.225 407.683 78.55C406.048 77.86 404.751 76.795 403.791 75.355C402.846 73.915 402.381 72.115 402.396 69.955V36.16Z" fill="black"/>
</svg>
