/* XPM */
static char * encoders_xpm[] = {
"16 16 7 1",
" 	c None",
".	c #000000",
"+	c #A0A0A4",
"@	c #C0C0C0",
"#	c #808080",
"$	c #585858",
"%	c #303030",
"                ",
"                ",
"                ",
"      ...       ",
"    ..+++..     ",
"  ..+++@+++..   ",
"..+++@+++++++.. ",
".#+++++++++++$. ",
".###+++++++$$$. ",
"..####+++$$$$.. ",
"% ..####$$$.. % ",
"  % ..##$.. %   ",
"    % ... %     ",
"      % %       ",
"                ",
"                "};
