/* XPM */
static char * mod_exploit_xpm[] = {
"16 15 90 1",
" 	c None",
".	c #F27A00",
"+	c #EF7700",
"@	c #F28807",
"#	c #ED8307",
"$	c #EF7800",
"%	c #F7B526",
"&	c #F3B131",
"*	c #E46B00",
"=	c #EF7E02",
"-	c #FDF554",
";	c #FDF354",
">	c #E27002",
",	c #F2A31D",
"'	c #FEFE37",
")	c #EA9722",
"!	c #E48215",
"~	c #FE8A00",
"{	c #FB8800",
"]	c #F88300",
"^	c #F58C06",
"/	c #F39715",
"(	c #F09215",
"_	c #FBEA4E",
":	c #FAE755",
"<	c #E17F15",
"[	c #DE7C15",
"}	c #D56406",
"|	c #D56B0E",
"1	c #C64A00",
"2	c #C34600",
"3	c #FD8900",
"4	c #FBAE27",
"5	c #FEF05F",
"6	c #FEF74D",
"7	c #FEF732",
"8	c #FEF746",
"9	c #FBDC49",
"0	c #D97612",
"a	c #C24400",
"b	c #F58E03",
"c	c #FDE232",
"d	c #FEE528",
"e	c #FEE129",
"f	c #FBC629",
"g	c #CF5C03",
"h	c #EF8808",
"i	c #FAC216",
"j	c #FED61E",
"k	c #FECF20",
"l	c #F3A91C",
"m	c #D15C02",
"n	c #EA7F02",
"o	c #FEC615",
"p	c #FEBF17",
"q	c #D56103",
"r	c #F0AE3E",
"s	c #EF8803",
"t	c #FEB70E",
"u	c #FEB50E",
"v	c #FEB40E",
"w	c #DC6A04",
"x	c #EA9320",
"y	c #F38D03",
"z	c #FEA708",
"A	c #FE9709",
"B	c #F88808",
"C	c #F89307",
"D	c #FEA608",
"E	c #E77104",
"F	c #BF4200",
"G	c #E78515",
"H	c #FA8E02",
"I	c #FB8203",
"J	c #E26601",
"K	c #CF5300",
"L	c #CB4E00",
"M	c #DB6001",
"N	c #FB8C03",
"O	c #F77E03",
"P	c #BC3E00",
"Q	c #E16A02",
"R	c #EA6900",
"S	c #D65A00",
"T	c #C54600",
"U	c #DC5900",
"V	c #BE3E00",
"W	c #D95F00",
"X	c #BB3C00",
"Y	c #B73800",
"       .+       ",
"       @#       ",
"      $%&*      ",
"      =-;>      ",
"      ,'')!     ",
"~{]^/(_'':<[}|12",
"345667777778690a",
"  bcdddddddefg  ",
"   hijjjjjklm   ",
"    nooooopq    ",
"   rsttuttvw    ",
"   xyzABCDzEF   ",
"   GHIJKLMNOP   ",
"   QRS    TUV   ",
"   WS      XY   "};
