<?xml version="1.0" standalone="no"?>
<!DOCTYPE svg PUBLIC "-//W3C//DTD SVG 1.1//EN" "http://www.w3.org/Graphics/SVG/1.1/DTD/svg11.dtd">
<svg xmlns="http://www.w3.org/2000/svg">
<defs >
<font id="Poppins" horiz-adv-x="867" ><font-face
    font-family="Poppins Medium"
    units-per-em="1000"
    panose-1="0 0 6 0 0 0 0 0 0 0"
    ascent="1050"
    descent="-350"
    alphabetic="0" />
<glyph unicode=" " glyph-name="space" horiz-adv-x="234" />
<glyph unicode="!" glyph-name="exclam" horiz-adv-x="323" d="M294 728L188 221H93L167 728H294ZM190 126L168 0H38L60 126H190Z" />
<glyph unicode="&quot;" glyph-name="quotedbl" horiz-adv-x="334" d="M159 798L113 592H35L61 798H159ZM310 798L264 592H186L212 798H310Z" />
<glyph unicode="#" glyph-name="numbersign" horiz-adv-x="832" d="M659 444L600 294H735L716 190H560L486 0H379L453 190H254L180 0H73L147 190H-6L13 294H187L246 444H98L116 549H287L361 740H468L394 549H593L667 740H774L700 549H838L820 444H659ZM552 444H353L294
294H493L552 444Z" />
<glyph unicode="$" glyph-name="dollar" horiz-adv-x="597" d="M444 527Q445 562 424 589T361 624L322 404Q333 401 342 397Q401 378 438 361T500 312T526 228Q526 207 522 188Q513 136 479 92T387 20T252 -7H250L236 -87H202L216 -5Q125 3 72 51T19 175Q19 189
20 196H142Q140 157 162 125T232 85L272 312Q200 335 165 350T101 399T72 486Q72 497 76 525Q86 581 123 624T217 691T343 715L358 800H392L377 714Q474 707 523 656T567 527H444ZM197 515T197 510Q197 475 221 454T290 415L328 627Q276 626 242 601T199 529Q197
515 197 510ZM402 199T402 204Q402 241 377 262T304 301L266 82Q320 82 355 111T400 185Q402 199 402 204Z" />
<glyph unicode="%" glyph-name="percent" horiz-adv-x="701" d="M305 716T340 684T375 594Q375 579 372 562Q359 491 310 450T193 409Q135 409 100 441T65 529Q65 544 68 562Q80 633 129 674T246 716Q305 716 340 684ZM669 707L144 0H33L557 707H669ZM145 554T145
540Q145 512 161 496T204 479Q238 479 262 501T293 562Q295 576 295 582Q295 612 279 629T234 646Q201 646 177 623T147 562Q145 554 145 540ZM567 298T602 267T637 179Q637 163 634 145Q622 74 573 33T456 -9Q397 -9 362 23T327 113Q327 129 330 145Q343 216 393
257T509 298Q567 298 602 267ZM407 95T423 78T467 61Q500 61 524 84T555 145Q557 152 557 166Q557 195 541 211T497 228Q459 228 433 199T407 124Q407 95 423 78Z" />
<glyph unicode="&amp;" glyph-name="ampersand" horiz-adv-x="685" d="M501 0L394 151Q389 136 372 110Q349 57 299 25T186 -7Q101 -7 52 39T3 162Q3 185 7 205Q18 267 51 313T130 384T226 408H234Q230 414 228 419T223 428Q208 454 201 475T193 521Q193 536 196
552Q203 594 231 631T305 690T412 713Q500 713 539 671T578 565Q579 559 579 546Q579 524 572 494H465Q470 526 470 527Q471 534 471 546Q471 580 452 598T397 617Q358 617 333 595T302 541Q300 527 300 521Q300 502 307 487T329 447L618 0H501ZM338 265T308 293T234
321Q186 321 151 292T107 208Q105 190 105 183Q105 139 132 115T204 90Q240 90 271 107T320 154T338 222Q338 265 308 293Z" />
<glyph unicode="&apos;" glyph-name="quotesingle" horiz-adv-x="188" d="M164 798L115 592H37L61 798H164Z" />
<glyph unicode="(" glyph-name="parenleft" horiz-adv-x="391" d="M72 594T172 745T408 990H519L517 978Q212 760 149 403Q135 324 135 255Q135 -2 314 -174L312 -185H201Q119 -111 72 0T25 253Q25 326 38 403Q72 594 172 745Z" />
<glyph unicode=")" glyph-name="parenright" horiz-adv-x="392" d="M320 210T220 59T-16 -185H-128L-126 -174Q180 45 243 403Q257 482 257 550Q257 807 77 978L79 990H191Q273 917 320 806T368 553Q368 485 354 403Q320 210 220 59Z" />
<glyph unicode="*" glyph-name="asterisk" horiz-adv-x="491" d="M414 679L444 599L298 548L426 498L365 415L268 506L264 360H171L217 506L85 413L52 498L198 549L70 599L131 680L232 590L236 736H330L283 590L414 679Z" />
<glyph unicode="+" glyph-name="plus" horiz-adv-x="571" d="M531 308H332L296 106H185L221 308H21L40 413H239L275 616H386L350 413H550L531 308Z" />
<glyph unicode="," glyph-name="comma" horiz-adv-x="193" d="M147 57T147 25Q147 -46 111 -95T5 -144L13 -98Q38 -98 52 -85T71 -41L73 -32H16L35 78H142Q147 57 147 25Z" />
<glyph unicode="-" glyph-name="hyphen" horiz-adv-x="506" d="M487 410L470 314H58L75 410H487Z" />
<glyph unicode="." glyph-name="period" horiz-adv-x="190" d="M171 126L148 0H19L41 126H171Z" />
<glyph unicode="/" glyph-name="slash" horiz-adv-x="378" d="M481 944L11 -176H-100L370 944H481Z" />
<glyph unicode="0" glyph-name="zero" horiz-adv-x="607" d="M39 283T39 229Q39 -2 249 -2Q389 -2 466 94T572 358Q584 426 584 486Q584 716 375 716Q235 716 158 621T52 358Q39 283 39 229ZM436 236T395 171T268 106Q205 106 179 141T153 242Q153 286 165 358Q187
479 228 543T356 607Q418 607 444 573T471 474Q471 426 458 358Q436 236 395 171Z" />
<glyph unicode="1" glyph-name="one" horiz-adv-x="307" d="M56 599L75 706H301L177 0H57L162 599H56Z" />
<glyph unicode="2" glyph-name="two" horiz-adv-x="561" d="M398 333T427 493Q430 511 430 529Q430 572 406 597T331 622Q271 622 234 584T182 470H71Q92 593 169 656T352 719Q447 719 498 675T550 550Q550 529 545 499Q527 391 411 284T153 98H488L472 5H-19L-4
89Q398 333 427 493Z" />
<glyph unicode="3" glyph-name="three" horiz-adv-x="563" d="M455 728T505 684T555 567Q555 550 552 530Q541 467 495 426T379 375L378 370Q438 352 472 314T507 212Q507 189 503 169Q490 90 426 42T255 -7Q142 -7 81 45T19 198Q19 213 20 221H132Q128 160 160
125T263 90Q316 90 350 116T392 186Q395 201 395 214Q395 266 355 294T237 322H211L228 416H254Q418 414 438 521Q440 537 440 544Q440 586 415 609T342 632Q289 632 248 600T193 509H81Q102 612 176 670T361 728Q455 728 505 684Z" />
<glyph unicode="4" glyph-name="four" horiz-adv-x="610" d="M-1 152L16 248L448 712H571L490 252H589L571 152H472L446 0H330L357 152H-1ZM440 576L135 252H383L440 576Z" />
<glyph unicode="5" glyph-name="five" horiz-adv-x="596" d="M573 616H224L186 406Q216 437 263 455T364 474Q457 474 502 423T547 290Q547 265 542 233Q523 127 451 62T265 -4Q158 -4 99 46T39 184Q39 194 41 212H153Q153 158 185 127T276 96Q341 96 380 134T431
235Q434 255 434 273Q434 325 405 354T320 383Q277 383 237 363T175 310H64L136 717H590L573 616Z" />
<glyph unicode="6" glyph-name="six" horiz-adv-x="602" d="M464 573T439 603T358 634Q280 634 232 566T162 350Q186 404 242 436T366 468Q455 468 504 422T553 288Q553 259 547 226Q529 124 458 59T273 -7Q151 -7 99 55T46 229Q46 285 59 358Q92 544 166 635T376
727Q484 727 530 668T574 516H466Q464 573 439 603ZM151 227T151 210Q151 158 182 125T277 92Q340 92 384 128T439 228Q443 247 443 267Q443 322 412 350T325 379Q265 379 215 345T154 245Q151 227 151 210Z" />
<glyph unicode="7" glyph-name="seven" horiz-adv-x="481" d="M517 624L145 0H25L399 611H49L67 710H533L517 624Z" />
<glyph unicode="8" glyph-name="eight" horiz-adv-x="616" d="M110 601T146 642T242 707T381 732Q485 732 540 686T595 566Q595 550 592 532Q583 478 545 439T443 381Q499 361 529 321T559 224Q559 211 555 183Q538 87 456 35T248 -18Q144 -18 82 30T20 165Q20
189 24 210Q35 273 79 316T194 381Q146 397 122 431T98 514Q98 533 101 552Q110 601 146 642ZM210 459T240 435T324 411Q393 411 435 446T478 544Q478 589 448 613T364 638Q296 638 253 603T210 503Q210 459 240 435ZM133 132T168 104T265 76Q343 76 393 117T443
227Q443 279 407 305T310 331Q235 331 184 294T133 183Q133 132 168 104Z" />
<glyph unicode="9" glyph-name="nine" horiz-adv-x="592" d="M147 147T172 116T252 85Q333 85 382 153T453 370Q428 316 372 284T249 251Q160 251 111 297T62 430Q62 460 68 493Q79 559 115 612T210 696T347 727Q468 727 519 667T570 499Q570 437 556 361Q525
178 453 85T241 -8Q135 -8 86 52T41 204H149Q147 147 172 116ZM464 494T464 510Q464 563 433 595T338 628Q275 628 231 591T176 487Q172 468 172 449Q172 396 203 368T290 340Q349 340 399 375T461 476Q464 494 464 510Z" />
<glyph unicode=":" glyph-name="colon" horiz-adv-x="216" d="M224 550L202 424H72L94 550H224ZM149 126L127 0H-3L19 126H149Z" />
<glyph unicode=";" glyph-name="semicolon" horiz-adv-x="278" d="M262 546L239 420H110L132 546H262ZM168 57T168 25Q168 -46 132 -95T26 -144L34 -98Q59 -98 73 -85T92 -41L94 -32H37L56 78H163Q168 57 168 25Z" />
<glyph unicode="&lt;" glyph-name="less" horiz-adv-x="436" d="M221 135L31 361L302 589H445L174 361L365 135H221Z" />
<glyph unicode="=" glyph-name="equal" horiz-adv-x="593" d="M591 526L573 422H41L59 526H591ZM552 301L534 197H2L20 301H552Z" />
<glyph unicode="&gt;" glyph-name="greater" horiz-adv-x="436" d="M71 589H214L405 361L134 135H-10L261 361L71 589Z" />
<glyph unicode="?" glyph-name="question" horiz-adv-x="508" d="M409 740T460 696T511 572Q511 547 507 526Q490 427 415 377T231 325L211 215H102L136 401H184Q268 401 325 427T394 526Q397 541 397 555Q397 598 371 622T298 646Q243 646 210 616T163 534H54Q73
627 141 683T319 740Q409 740 460 696ZM207 126L185 0H55L77 126H207Z" />
<glyph unicode="@" glyph-name="at" horiz-adv-x="1179" d="M876 798T971 756T1115 633T1164 442Q1164 396 1155 343Q1138 245 1087 165T967 38T827 -9Q771 -9 739 14T707 90Q707 105 710 123Q615 -9 475 -9Q394 -9 348 40T301 174Q301 214 311 255Q331 343 384
412T512 521T669 560Q764 560 817 513T870 385Q870 340 854 292L814 171Q805 146 805 129Q805 108 817 100T852 91Q889 91 927 120T994 205T1038 339Q1046 385 1046 421Q1046 553 960 628T707 704Q559 704 442 642T250 472T152 230Q143 179 143 135Q143 -12 236
-88T509 -166L471 -261Q257 -258 143 -162T29 115Q29 166 40 230Q69 395 169 524T418 726T740 798Q876 798 971 756ZM753 326T753 350Q753 402 722 430T632 459Q584 459 541 435T466 364T421 257Q415 232 415 208Q415 154 446 123T531 91Q577 91 621 115T699 187T747
299Q753 326 753 350Z" />
<glyph unicode="A" glyph-name="A" horiz-adv-x="682" d="M456 153H158L77 0H-45L337 695H468L605 0H483L456 153ZM440 241L381 571L205 241H440Z" />
<glyph unicode="B" glyph-name="B" horiz-adv-x="618" d="M584 462T541 420T439 364Q493 352 524 314T555 223Q555 208 552 191Q537 103 469 52T288 0H7L131 706H407Q501 706 549 669T598 564Q598 548 595 528Q584 462 541 420ZM477 524T477 531Q477 570 450 591T366
613H229L192 402H332Q393 402 429 430T475 508Q477 524 477 531ZM439 222T439 229Q439 271 409 295T321 319H178L138 94H282Q347 94 387 123T437 206Q439 222 439 229Z" />
<glyph unicode="C" glyph-name="C" horiz-adv-x="761" d="M577 713T651 647T735 468H615Q602 532 554 569T427 607Q364 607 309 576T215 488T163 353Q157 322 157 292Q157 203 206 152T338 100Q416 100 477 137T575 238H695Q645 125 548 60T321 -6Q234 -6 170
29T73 127T39 274Q39 315 46 353Q64 458 120 539T262 667T447 713Q577 713 651 647Z" />
<glyph unicode="D" glyph-name="D" horiz-adv-x="721" d="M656 247T599 168T450 44T243 0H7L131 706H367Q519 706 600 634T682 433Q682 393 675 354Q656 247 599 168ZM379 103T458 168T559 354Q565 386 565 414Q565 506 508 555T340 605H228L139 103H251Q379 103
458 168Z" />
<glyph unicode="E" glyph-name="E" horiz-adv-x="515" d="M229 614L192 400H451L435 312H176L138 93H427L411 0H7L131 706H535L519 614H229Z" />
<glyph unicode="F" glyph-name="F" horiz-adv-x="519" d="M548 706L532 614H229L191 395H441L425 307H175L121 0H7L131 706H548Z" />
<glyph unicode="G" glyph-name="G" horiz-adv-x="773" d="M579 712T651 649T736 481H615Q603 538 557 572T438 606Q372 606 314 575T216 487T163 353Q157 320 157 290Q157 197 211 146T359 95Q447 95 519 149T621 299H362L377 383H733L714 274Q689 192 635 129T503
29T330 -7Q240 -7 175 28T74 129T39 279Q39 319 46 358Q64 461 121 541T265 667T455 712Q579 712 651 649Z" />
<glyph unicode="H" glyph-name="H" horiz-adv-x="699" d="M692 706L568 0H453L509 317H177L121 0H7L131 706H245L193 410H525L577 706H692Z" />
<glyph unicode="I" glyph-name="I" horiz-adv-x="252" d="M245 706L121 0H7L131 706H245Z" />
<glyph unicode="J" glyph-name="J" horiz-adv-x="503" d="M502 706L412 194Q395 99 333 46T176 -7Q89 -7 41 36T-7 162Q-7 194 -2 219H111Q107 191 107 181Q107 141 127 119T189 97Q236 97 263 124T297 194L388 706H502Z" />
<glyph unicode="K" glyph-name="K" horiz-adv-x="617" d="M291 357L539 0H400L179 328L121 0H7L131 706H245L188 382L525 706H663L291 357Z" />
<glyph unicode="L" glyph-name="L" horiz-adv-x="447" d="M137 89H380L365 0H7L131 706H245L137 89Z" />
<glyph unicode="M" glyph-name="M" horiz-adv-x="869" d="M862 695L740 0H625L717 521L424 0H324L214 520L123 0H8L129 695H268L400 140L724 695H862Z" />
<glyph unicode="N" glyph-name="N" horiz-adv-x="709" d="M578 0H464L213 521L121 0H7L131 705H245L496 182L588 705H702L578 0Z" />
<glyph unicode="O" glyph-name="O" horiz-adv-x="783" d="M534 715T602 678T706 573T743 416Q743 374 736 335Q719 235 664 157T526 36T342 -8Q248 -8 180 29T76 133T39 289Q39 327 47 373Q64 473 119 550T258 671T441 715Q534 715 602 678ZM366 609T309 579T212
492T159 359Q154 333 154 300Q154 206 207 153T352 99Q418 99 475 129T571 216T624 349Q629 375 629 409Q629 502 576 555T432 609Q366 609 309 579Z" />
<glyph unicode="P" glyph-name="P" horiz-adv-x="585" d="M170 274L121 0H7L131 706H371Q477 706 530 661T583 537Q583 512 579 489Q561 389 488 332T295 274H170ZM441 367T462 489Q465 506 465 520Q465 565 436 588T343 612H229L186 367H300Q441 367 462 489Z" />
<glyph unicode="Q" glyph-name="Q" horiz-adv-x="783" d="M720 236T666 159T530 38L667 -133H525L427 0Q384 -8 343 -8Q249 -8 181 29T77 133T40 289Q40 327 48 373Q65 473 120 550T259 671T442 715Q535 715 603 678T707 573T744 416Q744 374 737 335Q720 236
666 159ZM419 99T476 129T572 216T625 349Q630 375 630 409Q630 502 577 555T433 609Q367 609 310 579T213 492T160 359Q155 333 155 300Q155 206 208 153T353 99Q419 99 476 129Z" />
<glyph unicode="R" glyph-name="R" horiz-adv-x="598" d="M486 706T539 661T592 537Q592 512 588 491Q574 408 518 355T371 287L506 0H378L252 282H171L121 0H7L131 706H380Q486 706 539 661ZM474 500T474 514Q474 608 354 608H229L185 363H310Q450 363 471 485Q474
500 474 514Z" />
<glyph unicode="S" glyph-name="S" horiz-adv-x="576" d="M495 122T464 82T380 18T257 -7Q182 -7 128 19T47 92T20 196H141Q139 150 168 117T259 84Q316 84 349 118T382 202Q382 236 364 258T319 295T244 328Q188 350 154 368T95 421T71 508Q71 531 75 554Q88
627 154 671T317 715Q430 715 487 663T548 527H425Q425 567 398 595T315 624Q263 624 230 597T197 518Q197 487 214 466T258 432T330 401Q386 380 421 361T482 306T507 216Q507 191 503 168Q495 122 464 82Z" />
<glyph unicode="T" glyph-name="T" horiz-adv-x="539" d="M585 706L569 614H372L264 0H149L257 614H61L77 706H585Z" />
<glyph unicode="U" glyph-name="U" horiz-adv-x="671" d="M241 706L168 287Q162 256 162 230Q162 165 196 133T292 101Q366 101 415 147T482 287L556 706H670L597 287Q571 142 483 68T271 -7Q167 -7 107 47T46 209Q46 248 53 287L127 706H241Z" />
<glyph unicode="V" glyph-name="V" horiz-adv-x="687" d="M202 706L302 122L609 706H733L354 0H208L78 706H202Z" />
<glyph unicode="W" glyph-name="W" horiz-adv-x="996" d="M1025 706L725 0H585L532 546L287 0H147L95 706H220L241 132L497 706H623L677 130L900 706H1025Z" />
<glyph unicode="X" glyph-name="X" horiz-adv-x="624" d="M381 352L546 0H410L287 262L90 0H-41L240 361L78 706H214L335 450L530 706H661L381 352Z" />
<glyph unicode="Y" glyph-name="Y" horiz-adv-x="618" d="M664 706L350 257L305 0H190L235 257L78 706H210L314 379L534 706H664Z" />
<glyph unicode="Z" glyph-name="Z" horiz-adv-x="554" d="M123 93H466L450 0H-20L-5 89L424 613H95L111 706H569L554 617L123 93Z" />
<glyph unicode="[" glyph-name="bracketleft" horiz-adv-x="367" d="M418 944L401 851H280L116 -82H237L220 -176H-9L189 944H418Z" />
<glyph unicode="\" glyph-name="backslash" horiz-adv-x="664" d="M312 -176L209 944H321L422 -176H312Z" />
<glyph unicode="]" glyph-name="bracketright" horiz-adv-x="365" d="M-52 -176L-36 -82H86L250 851H129L145 944H375L177 -176H-52Z" />
<glyph unicode="^" glyph-name="asciicircum" horiz-adv-x="649" d="M101 168H-13L317 696H426L569 168H455L348 562L101 168Z" />
<glyph unicode="_" glyph-name="underscore" horiz-adv-x="627" d="M583 -36L563 -147H6L26 -36H583Z" />
<glyph unicode="`" glyph-name="grave" horiz-adv-x="294" d="M303 674L289 594L88 707L104 796L303 674Z" />
<glyph unicode="a" glyph-name="a" horiz-adv-x="677" d="M414 558T461 521T520 423L543 551H657L559 0H445L468 128Q436 67 377 30T242 -7Q146 -7 91 51T36 211Q36 249 43 285Q58 369 100 430T204 525T337 558Q414 558 461 521ZM283 458T229 409T159 276Q155
255 155 231Q155 166 192 130T294 94Q367 94 423 143T494 276Q498 296 498 318Q498 382 460 420T359 458Q283 458 229 409Z" />
<glyph unicode="b" glyph-name="b" horiz-adv-x="676" d="M11 0L142 740H256L200 423Q232 484 291 521T426 558Q520 558 575 501T631 344Q631 312 625 276Q610 189 567 125T461 27T326 -7Q251 -7 205 30T148 128L125 0H11ZM385 94T439 142T509 276Q513 297 513
320Q513 385 476 421T374 458Q300 458 244 408T173 276Q169 256 169 235Q169 170 207 132T309 94Q385 94 439 142Z" />
<glyph unicode="c" glyph-name="c" horiz-adv-x="622" d="M469 558T530 502T591 348H470Q470 400 437 429T345 459Q280 459 227 412T158 276Q154 253 154 228Q154 161 189 127T281 92Q338 92 382 122T445 204H566Q532 107 452 50T265 -7Q160 -7 98 53T36 218Q36
249 42 285Q57 369 102 430T215 525T361 558Q469 558 530 502Z" />
<glyph unicode="d" glyph-name="d" horiz-adv-x="673" d="M681 740L550 0H435L458 128Q426 67 367 30T232 -7Q139 -7 83 52T26 214Q26 241 33 285Q48 369 90 430T194 525T327 558Q404 558 451 521T510 423L566 740H681ZM273 458T219 409T149 276Q145 255 145 231Q145
166 182 130T284 94Q358 94 414 143T485 276Q489 304 489 316Q489 382 451 420T349 458Q273 458 219 409Z" />
<glyph unicode="e" glyph-name="e" horiz-adv-x="623" d="M435 558T486 532T563 460T590 354Q590 332 585 302Q579 273 572 253H148Q146 240 146 218Q146 151 181 119T275 86Q332 86 376 115T439 192H561Q529 103 450 48T264 -7Q160 -7 98 52T36 214Q36 247 42
281Q57 366 103 428T216 524T364 558Q435 558 486 532ZM476 325T476 349Q476 407 440 437T348 467Q281 467 229 426T159 305H471Q476 325 476 349Z" />
<glyph unicode="f" glyph-name="f" horiz-adv-x="349" d="M141 670T209 720T394 765L376 665Q309 668 278 644T236 560L234 551H356L339 453H217L138 0H23L103 453H28L45 551H120L123 569Q141 670 209 720Z" />
<glyph unicode="g" glyph-name="g" horiz-adv-x="675" d="M150 -8T94 51T37 214Q37 241 44 285Q59 369 101 431T206 526T339 559Q416 559 463 522T522 423L545 551H658L560 -6Q546 -83 505 -142T400 -236T256 -270Q142 -270 79 -215T10 -66H123Q129 -115 164 -142T262
-170Q330 -170 381 -128T446 -6L470 128Q438 67 379 30T244 -8Q150 -8 94 51ZM284 458T230 410T161 276Q157 255 157 231Q157 166 194 130T296 94Q369 94 425 143T496 276Q500 295 500 317Q500 382 462 420T360 458Q284 458 230 410Z" />
<glyph unicode="h" glyph-name="h" horiz-adv-x="653" d="M509 560T556 515T604 383Q604 354 598 321L542 0H428L482 309Q486 328 486 349Q486 405 455 434T367 464Q302 464 255 425T190 308L136 0H21L151 740H266L212 431Q245 492 302 526T428 560Q509 560 556 515Z" />
<glyph unicode="i" glyph-name="i" horiz-adv-x="251" d="M127 732T152 755T214 778Q243 778 259 763T276 724Q276 690 252 668T190 646Q160 646 144 661T127 700Q127 732 152 755ZM231 551L133 0H19L116 551H231Z" />
<glyph unicode="j" glyph-name="j" horiz-adv-x="256" d="M167 646T151 660T134 698Q134 731 159 754T221 778Q250 778 266 763T283 724Q283 690 259 668T197 646Q167 646 151 660ZM-107 -162H-67Q-34 -162 -17 -148T8 -98L122 551H237L122 -99Q93 -262 -70 -262H-124L-107
-162Z" />
<glyph unicode="k" glyph-name="k" horiz-adv-x="527" d="M267 281L459 0H323L170 248L126 0H11L141 740H256L183 322L417 551H555L267 281Z" />
<glyph unicode="l" glyph-name="l" horiz-adv-x="250" d="M266 740L136 0H21L151 740H266Z" />
<glyph unicode="m" glyph-name="m" horiz-adv-x="1037" d="M891 560T939 514T987 382Q987 354 981 321L924 0H810L864 309Q868 328 868 349Q868 402 838 431T755 460Q689 460 643 419T582 297L529 0H415L470 309Q474 337 474 348Q474 402 444 431T360 460Q294
460 248 418T186 293V297L134 0H19L116 551H231L211 435Q242 495 297 527T418 560Q486 560 530 526T587 428Q623 490 682 525T807 560Q891 560 939 514Z" />
<glyph unicode="n" glyph-name="n" horiz-adv-x="653" d="M508 560T555 515T602 384Q602 354 596 321L540 0H426L480 309Q484 328 484 349Q484 405 453 434T365 464Q297 464 249 421T186 293V296L134 0H19L116 551H231L210 429Q242 492 299 526T427 560Q508 560 555 515Z" />
<glyph unicode="o" glyph-name="o" horiz-adv-x="643" d="M477 558T542 498T607 331Q607 301 601 266Q586 183 539 121T424 26T276 -7Q205 -7 151 20T66 98T36 221Q36 251 42 285Q57 368 104 430T220 525T369 558Q477 558 542 498ZM286 459T230 412T158 276Q154
253 154 230Q154 162 192 128T289 93Q358 93 413 139T485 276Q489 297 489 321Q489 389 451 424T354 459Q286 459 230 412Z" />
<glyph unicode="p" glyph-name="p" horiz-adv-x="676" d="M530 558T585 501T641 344Q641 312 635 276Q619 189 576 125T471 27T336 -7Q261 -7 215 30T158 128L89 -262H-26L118 551H232L209 423Q242 484 301 521T436 558Q530 558 585 501ZM395 94T449 142T518 276Q522
297 522 320Q522 385 485 421T383 458Q309 458 254 408T183 276Q179 256 179 234Q179 169 217 132T319 94Q395 94 449 142Z" />
<glyph unicode="q" glyph-name="q" horiz-adv-x="673" d="M652 551L509 -262H395L463 121Q426 61 370 27T245 -7Q145 -7 89 52T32 213Q32 246 38 283Q53 368 97 430T204 524T340 557Q411 557 457 525T518 436L538 551H652ZM280 457T225 409T154 274Q150 253 150
230Q150 164 188 129T290 94Q336 94 378 115T449 178T489 276Q493 296 493 318Q493 383 454 420T353 457Q280 457 225 409Z" />
<glyph unicode="r" glyph-name="r" horiz-adv-x="399" d="M250 497T307 528T433 560L411 436H377Q302 436 250 400T184 279L183 280L134 0H19L116 551H231L212 443Q250 497 307 528Z" />
<glyph unicode="s" glyph-name="s" horiz-adv-x="518" d="M379 558T435 509T494 376H381Q382 421 352 448T262 476Q217 476 190 456T163 400Q163 377 179 362T218 337T286 315Q342 300 377 285T438 240T463 163Q463 144 459 125Q448 66 394 30T251 -7Q144 -7 82
41T18 175H131Q127 130 161 102T261 74Q306 74 330 96T355 152Q355 178 338 194T297 220T228 243Q173 259 140 273T83 315T59 388Q59 404 62 423Q73 484 128 521T272 558Q379 558 435 509Z" />
<glyph unicode="t" glyph-name="t" horiz-adv-x="384" d="M183 182Q180 166 180 152Q180 123 196 111T248 99H304L285 0H215Q141 0 103 30T64 128Q64 158 69 184L117 454H37L54 551H134L158 688H273L249 551H382L365 454H231L183 182Z" />
<glyph unicode="u" glyph-name="u" horiz-adv-x="640" d="M621 551L524 0H409L430 120Q397 59 340 26T214 -8Q132 -8 85 38T38 170Q38 198 44 231L101 551H215L160 243Q156 223 156 202Q156 146 187 117T275 87Q343 87 391 131T454 259V255L506 551H621Z" />
<glyph unicode="v" glyph-name="v" horiz-adv-x="574" d="M253 118L486 551H608L300 0H162L50 551H172L253 118Z" />
<glyph unicode="w" glyph-name="w" horiz-adv-x="841" d="M880 551L629 0H504L443 428L230 0H104L50 551H165L190 105L407 551H528L588 105L772 551H880Z" />
<glyph unicode="x" glyph-name="x" horiz-adv-x="525" d="M325 273L466 0H336L236 194L83 0H-43L189 286L52 551H182L280 361L430 551H557L325 273Z" />
<glyph unicode="y" glyph-name="y" horiz-adv-x="580" d="M171 551L265 146L489 551H616L139 -262H12L180 13L43 551H171Z" />
<glyph unicode="z" glyph-name="z" horiz-adv-x="459" d="M119 96H403L385 0H-24L-7 91L325 455H63L81 551H473L456 460L119 96Z" />
<glyph unicode="{" glyph-name="braceleft" horiz-adv-x="396" d="M190 362T212 333T235 260Q235 242 232 224Q225 186 206 136Q183 69 175 25Q170 -8 170 -31Q170 -96 196 -141T262 -207L261 -217H143Q113 -200 84 -154T55 -35Q55 -5 61 30Q68 68 91 138Q111
194 117 227Q120 241 120 256Q120 332 35 349L42 395Q151 416 169 517Q174 546 174 603Q174 672 181 714Q194 785 225 837T291 919T351 961H469L467 951Q409 925 361 866T297 719Q290 677 290 613Q290 554 284 520Q274 462 239 424T144 373V371Q190 362 212 333Z"
/>
<glyph unicode="|" glyph-name="bar" horiz-adv-x="224" d="M89 -113H-26L135 802H250L89 -113Z" />
<glyph unicode="}" glyph-name="braceright" horiz-adv-x="390" d="M212 383T189 410T166 480Q166 495 169 511Q176 549 195 599Q218 666 226 710Q231 742 231 765Q231 831 205 881T140 951L142 961H259Q290 944 319 898T348 777Q348 749 342 714Q334 670 311
608Q308 599 299 571T285 517Q282 504 282 487Q282 410 367 395L360 349Q298 340 270 305T233 227Q228 196 228 153Q228 125 227 93T221 30Q208 -41 177 -93T111 -175T51 -217H-66L-64 -207Q-8 -182 42 -117T107 34Q115 79 115 132V168Q115 203 120 233Q129 287
164 323T259 371V373Q212 383 189 410Z" />
<glyph unicode="~" glyph-name="asciitilde" horiz-adv-x="553" d="M232 404T253 395T303 366Q326 351 341 344T374 337Q400 337 418 355T448 405H537Q508 320 460 277T349 234Q320 234 299 243T250 271Q229 286 213 293T178 301Q127 301 103 233H16Q45 318 93
361T203 404Q232 404 253 395Z" />
<glyph unicode="&#xa0;" glyph-name="uni00A0" horiz-adv-x="234" />
<glyph unicode="&#xa1;" glyph-name="exclamdown" horiz-adv-x="336" d="M22 -167L135 340H235L157 -167H22ZM133 435L156 561H294L270 435H133Z" />
<glyph unicode="&#xa2;" glyph-name="cent" horiz-adv-x="584" d="M264 423T215 382T152 262Q148 234 148 223Q148 164 182 133T273 102Q325 102 367 130T428 209H534Q509 122 439 69T278 9L261 -88H207L224 9Q137 17 87 68T37 204Q37 237 42 262Q61 373 134 439T313
515L329 607H383L367 515Q456 509 507 456T553 315H447Q446 366 414 394T329 423Q264 423 215 382Z" />
<glyph unicode="&#xa3;" glyph-name="sterling" horiz-adv-x="596" d="M489 526Q493 579 466 612T386 645Q336 645 299 614T251 523Q247 504 247 481Q247 449 259 381H441L427 303H267Q269 278 264 254Q256 211 231 168T160 88H516L500 -3H32L28 56Q83 101 113
145T155 252Q159 272 157 303H39L53 381H146Q138 439 138 472Q138 508 143 535Q159 628 228 683T399 739Q496 739 546 688T596 553Q596 535 595 526H489Z" />
<glyph unicode="&#xa4;" glyph-name="currency" horiz-adv-x="549" d="M444 491Q466 458 466 412Q466 396 463 378Q451 313 406 266L452 211L399 166L350 225Q301 199 243 199Q184 199 144 225L74 166L37 211L104 267Q85 299 85 341Q85 352 89 378Q101 444 144
489L96 547L149 592L200 531Q251 555 306 555Q362 555 403 531L474 592L511 547L444 491ZM176 362T176 350Q176 311 198 290T256 269Q296 269 329 297T372 377Q374 395 374 402Q374 442 352 464T294 486Q253 486 221 457T179 377Q176 362 176 350Z" />
<glyph unicode="&#xa5;" glyph-name="yen" horiz-adv-x="641" d="M460 396H587L574 319H406L363 257L362 249H561L548 171H348L318 0H203L233 171H33L46 249H247L248 257L226 319H59L72 396H199L91 706H223L325 362L547 706H677L460 396Z" />
<glyph unicode="&#xa6;" glyph-name="brokenbar" horiz-adv-x="304" d="M175 802H290L221 414H107L175 802ZM129 -113H14L82 275H197L129 -113Z" />
<glyph unicode="&#xa7;" glyph-name="section" horiz-adv-x="580" d="M439 549Q440 554 440 564Q440 604 416 628T340 653Q296 653 269 633T241 572Q241 539 273 513T381 458Q458 430 499 394T541 302Q541 240 500 191T376 117Q456 69 456 -8Q456 -26 454 -35Q442
-104 382 -146T224 -188Q130 -188 78 -143T26 -19L27 -2H140Q137 -49 160 -77T241 -106Q280 -106 306 -89T337 -40Q339 -28 339 -22Q339 12 308 36T199 90Q122 117 81 153T39 245Q39 307 81 359T206 429Q123 479 123 556Q123 573 125 582Q137 652 197 694T356 736Q456
736 507 686T553 549H439ZM419 331T391 354T308 377Q264 377 231 360T180 315T162 254Q162 216 191 193T273 170Q317 170 350 187T401 232T419 293Q419 331 391 354Z" />
<glyph unicode="&#xa8;" glyph-name="dieresis" horiz-adv-x="365" d="M97 697T117 716T164 736Q185 736 198 724T212 691Q212 664 192 644T144 624Q124 624 111 637T97 670Q97 697 117 716ZM274 697T294 716T340 736Q361 736 374 724T388 691Q388 664 368 644T321
624Q300 624 287 636T274 669Q274 697 294 716Z" />
<glyph unicode="&#xa9;" glyph-name="copyright" horiz-adv-x="788" d="M354 710T267 665T122 540T46 355Q39 319 39 280Q39 196 74 133T176 34T332 -2Q435 -2 522 43T666 170T742 355Q749 391 749 430Q749 514 714 577T612 675T457 710Q354 710 267 665ZM571
670T638 604T706 426Q706 399 699 355Q683 263 633 191T506 79T338 38Q217 38 150 105T82 285Q82 313 89 355Q105 448 155 519T282 630T451 670Q571 670 638 604ZM515 584T564 540T616 418H519Q514 459 487 482T420 506Q367 506 325 467T269 354Q265 335 265 315Q265
261 293 232T367 203Q407 203 441 226T496 291H594Q564 213 499 169T357 124Q274 124 224 171T173 302Q173 323 178 355Q191 426 229 478T321 557T439 584Q515 584 564 540Z" />
<glyph unicode="&#xaa;" glyph-name="ordfeminine" horiz-adv-x="446" d="M275 710T304 689T343 627L357 705H444L382 354H295L308 432Q260 348 162 348Q100 348 64 384T27 486Q27 509 31 529Q46 612 99 661T226 710Q275 710 304 689ZM197 640T164 610T121 528Q118
515 118 502Q118 463 141 442T202 420Q248 420 282 449T326 530Q328 546 328 553Q328 594 305 617T241 640Q197 640 164 610Z" />
<glyph unicode="&#xab;" glyph-name="guillemotleft" horiz-adv-x="489" d="M107 120L45 295L169 470H278L152 295L216 120H107ZM304 120L242 295L366 470H474L348 295L412 120H304Z" />
<glyph unicode="&#xac;" glyph-name="logicalnot" horiz-adv-x="748" d="M714 435L674 208H560L585 347H46L61 435H714Z" />
<glyph unicode="&#xad;" glyph-name="uni00AD" horiz-adv-x="506" d="M487 410L470 314H58L75 410H487Z" />
<glyph unicode="&#xae;" glyph-name="registered" horiz-adv-x="802" d="M556 711T623 677T727 579T763 431Q763 393 756 355Q738 252 679 171T532 44T339 -2Q247 -2 180 33T76 133T39 281Q39 320 46 355Q65 460 124 541T271 666T464 711Q556 711 623 677ZM720
399T720 427Q720 540 651 605T458 671Q363 671 285 632T157 522T89 355Q83 319 83 286Q83 174 152 109T346 43Q441 43 518 82T646 191T713 355Q720 399 720 427ZM532 585T565 558T599 484Q599 425 562 384T458 333L545 146H463L381 330H330L298 146H224L301 585H463Q532
585 565 558ZM521 461T521 467Q521 518 445 518H363L339 379H421Q507 379 519 449Q521 461 521 467Z" />
<glyph unicode="&#xaf;" glyph-name="overscore" horiz-adv-x="418" d="M459 720L445 642H79L93 720H459Z" />
<glyph unicode="&#xb0;" glyph-name="degree" horiz-adv-x="422" d="M315 702T357 666T399 565Q399 545 395 526Q381 444 323 396T182 347Q109 347 67 385T24 489Q24 507 27 526Q41 607 99 654T242 702Q315 702 357 666ZM190 639T158 609T117 525Q114 510 114
496Q114 455 135 434T193 412Q234 412 265 441T305 525Q308 542 308 555Q308 595 287 617T232 639Q190 639 158 609Z" />
<glyph unicode="&#xb1;" glyph-name="plusminus" horiz-adv-x="571" d="M347 369L316 197H516L498 93H-12L6 197H205L236 369H37L55 473H254L282 633H393L365 473H565L546 369H347Z" />
<glyph unicode="&#xb2;" glyph-name="twosuperior" horiz-adv-x="358" d="M328 570T296 539T198 472L109 420H304L292 352H12L23 415L163 507Q197 531 217 553T242 603Q243 607 243 613Q243 631 232 640T204 649Q179 649 162 633T136 584H49Q63 640 109 676T226
712Q280 712 308 689T337 629Q337 622 335 610Q328 570 296 539Z" />
<glyph unicode="&#xb3;" glyph-name="threesuperior" horiz-adv-x="349" d="M268 712T299 689T331 627Q331 616 330 611Q317 547 245 532L244 529Q307 513 307 463Q307 413 264 381T149 348Q73 348 42 377T15 462H107Q104 433 116 422T153 411Q179 411 195 423T215
460Q216 464 216 472Q216 492 202 502T163 512H117L122 547H166Q194 547 212 560T235 600Q236 604 236 610Q236 627 225 637T192 648Q143 648 127 599H43Q57 648 98 680T212 712Q268 712 299 689Z" />
<glyph unicode="&#xb4;" glyph-name="acute" horiz-adv-x="273" d="M309 707L68 594L82 674L325 796L309 707Z" />
<glyph unicode="&#xb5;" glyph-name="uni00B5" horiz-adv-x="658" d="M649 551L552 0H437L457 114Q425 56 371 24T253 -8Q180 -8 153 42L99 -262H-15L129 551H243L192 264Q188 241 188 217Q188 156 220 124T310 92Q375 92 421 135T482 259V254L534 551H649Z" />
<glyph unicode="&#xb6;" glyph-name="paragraph" horiz-adv-x="625" d="M484 0H390L496 608H412L305 0H212L261 282H246Q143 282 93 327T42 446Q42 469 46 488Q62 579 132 637T319 695H605L484 0Z" />
<glyph unicode="&#xb7;" glyph-name="middot" horiz-adv-x="204" d="M198 395L175 269H46L68 395H198Z" />
<glyph unicode="&#xb8;" glyph-name="cedilla" horiz-adv-x="293" d="M201 -58T232 -78T264 -143Q264 -150 262 -164Q253 -214 213 -238T118 -262H2L13 -198H116Q183 -198 183 -152Q183 -116 130 -116H71L93 7H163L152 -60Q201 -58 232 -78Z" />
<glyph unicode="&#xb9;" glyph-name="onesuperior" horiz-adv-x="216" d="M50 635L62 704H209L147 352H59L109 635H50Z" />
<glyph unicode="&#xba;" glyph-name="ordmasculine" horiz-adv-x="430" d="M327 709T370 669T413 563Q413 545 410 527Q401 475 370 434T291 369T188 345Q114 345 71 385T28 491Q28 508 31 527Q45 608 106 658T252 709Q327 709 370 669ZM196 640T163 611T120 527Q117
512 117 498Q117 459 140 437T200 415Q244 415 277 444T321 527Q324 542 324 555Q324 596 301 618T240 640Q196 640 163 611Z" />
<glyph unicode="&#xbb;" glyph-name="guillemotright" horiz-adv-x="489" d="M146 295L81 470H191L252 295L129 120H19L146 295ZM343 295L278 470H387L448 295L325 120H216L343 295Z" />
<glyph unicode="&#xbc;" glyph-name="onequarter" horiz-adv-x="704" d="M629 706L138 0H25L517 706H629ZM64 635L76 704H223L161 352H73L123 635H64ZM622 68H576L565 0H477L488 68H302L311 117L513 353H627L586 120H632L622 68ZM530 281L396 122H503L530 281Z" />
<glyph unicode="&#xbd;" glyph-name="onehalf" horiz-adv-x="750" d="M634 707L138 0H25L522 707H634ZM144 635H85L97 704H244L182 352H94L144 635ZM683 217T651 186T553 119L464 67H659L647 -1H367L378 62L518 154Q552 178 572 200T597 250Q598 254 598 260Q598
278 587 287T559 296Q534 296 517 280T491 231H404Q418 287 464 323T581 359Q635 359 663 336T692 276Q692 269 690 257Q683 217 651 186Z" />
<glyph unicode="&#xbe;" glyph-name="threequarters" horiz-adv-x="763" d="M292 712T323 689T355 627Q355 616 354 611Q341 547 269 532L268 529Q331 513 331 463Q331 413 288 381T173 348Q97 348 66 377T39 462H131Q128 433 140 422T177 411Q203 411 219 423T239
460Q240 464 240 472Q240 492 226 502T187 512H141L146 547H190Q218 547 236 560T259 600Q260 604 260 610Q260 627 249 637T216 648Q167 648 151 599H67Q81 648 122 680T236 712Q292 712 323 689ZM703 707L220 0H108L590 707H703ZM695 68H649L638 0H550L561 68H374L383
117L575 353H700L659 120H704L695 68ZM605 291L469 120H575L605 291Z" />
<glyph unicode="&#xbf;" glyph-name="questiondown" horiz-adv-x="498" d="M96 -186T45 -142T-6 -18Q-6 7 -2 28Q15 127 90 177T274 229L294 339H403L369 153H321Q237 153 180 127T111 28Q108 13 108 -1Q108 -44 134 -68T207 -92Q262 -92 295 -62T342 20H451Q432
-73 364 -129T186 -186Q96 -186 45 -142ZM298 428L320 554H450L428 428H298Z" />
<glyph unicode="&#xc0;" glyph-name="Agrave" horiz-adv-x="682" d="M456 153H158L77 0H-45L337 695H468L605 0H483L456 153ZM440 241L381 571L205 241H440ZM483 829L469 749L268 862L284 951L483 829Z" />
<glyph unicode="&#xc1;" glyph-name="Aacute" horiz-adv-x="682" d="M457 153H159L78 0H-44L338 695H469L606 0H484L457 153ZM441 241L382 571L206 241H441ZM589 862L348 749L362 829L605 951L589 862Z" />
<glyph unicode="&#xc2;" glyph-name="Acircumflex" horiz-adv-x="682" d="M459 153H161L80 0H-42L340 695H471L608 0H486L459 153ZM443 241L384 571L208 241H443ZM432 846L274 762L288 840L446 923L574 840L560 762L432 846Z" />
<glyph unicode="&#xc3;" glyph-name="Atilde" horiz-adv-x="682" d="M463 153H165L84 0H-38L344 695H475L612 0H490L463 153ZM447 241L388 571L212 241H447ZM404 880T418 874T451 853Q465 842 476 837T500 832Q518 832 532 844T553 879H614Q595 821 562 792T485
763Q464 763 449 770T415 790Q398 801 390 805T368 810Q332 810 316 763H256Q295 880 384 880Q404 880 418 874Z" />
<glyph unicode="&#xc4;" glyph-name="Adieresis" horiz-adv-x="682" d="M462 153H164L83 0H-39L343 695H474L611 0H489L462 153ZM446 241L387 571L211 241H446ZM288 852T308 871T355 891Q376 891 389 879T403 846Q403 819 383 799T335 779Q315 779 302 792T288
825Q288 852 308 871ZM465 852T485 871T531 891Q552 891 565 879T579 846Q579 819 559 799T512 779Q491 779 478 791T465 824Q465 852 485 871Z" />
<glyph unicode="&#xc5;" glyph-name="Aring" horiz-adv-x="682" d="M711 153H413L332 0H210L592 695H723L860 0H738L711 153ZM695 241L636 571L460 241H695ZM486 979T511 956T537 892Q537 852 519 822T471 776T406 760Q365 760 340 783T314 847Q314 853 316 869Q325
919 361 949T445 979Q486 979 511 956ZM411 930T392 914T367 869Q366 864 366 856Q366 834 379 822T415 809Q444 809 464 829T485 883Q485 905 472 917T436 930Q411 930 392 914Z" />
<glyph unicode="&#xc6;" glyph-name="AE" horiz-adv-x="907" d="M626 614L589 401H843L827 313H573L534 93H819L803 0H403L429 148H177L69 0H-57L456 706H927L910 614H626ZM510 606L241 236H445L510 606Z" />
<glyph unicode="&#xc7;" glyph-name="Ccedilla" horiz-adv-x="761" d="M587 713T661 647T745 468H625Q612 532 564 569T437 607Q374 607 319 576T225 488T173 353Q167 322 167 292Q167 203 216 152T348 100Q426 100 487 137T585 238H705Q655 125 558 60T331 -6Q244
-6 180 29T83 127T49 274Q49 315 56 353Q74 458 130 539T272 667T457 713Q587 713 661 647ZM422 -58T453 -78T485 -143Q485 -150 483 -164Q474 -214 434 -238T339 -262H223L234 -198H337Q404 -198 404 -152Q404 -116 351 -116H292L314 7H384L373 -60Q422 -58 453
-78Z" />
<glyph unicode="&#xc8;" glyph-name="Egrave" horiz-adv-x="515" d="M481 614L444 400H703L687 312H428L390 93H679L663 0H259L383 706H787L771 614H481ZM408 829L394 749L193 862L209 951L408 829Z" />
<glyph unicode="&#xc9;" glyph-name="Eacute" horiz-adv-x="515" d="M481 614L444 400H703L687 312H428L390 93H679L663 0H259L383 706H787L771 614H481ZM515 862L274 749L288 829L531 951L515 862Z" />
<glyph unicode="&#xca;" glyph-name="Ecircumflex" horiz-adv-x="515" d="M484 614L447 400H706L690 312H431L393 93H682L666 0H262L386 706H790L774 614H484ZM358 846L200 762L214 840L372 923L500 840L486 762L358 846Z" />
<glyph unicode="&#xcb;" glyph-name="Edieresis" horiz-adv-x="515" d="M230 614L193 400H452L436 312H177L139 93H428L412 0H8L132 706H536L520 614H230ZM214 852T234 871T281 891Q302 891 315 879T329 846Q329 819 309 799T261 779Q241 779 228 792T214 825Q214
852 234 871ZM391 852T411 871T457 891Q478 891 491 879T505 846Q505 819 485 799T438 779Q417 779 404 791T391 824Q391 852 411 871Z" />
<glyph unicode="&#xcc;" glyph-name="Igrave" horiz-adv-x="252" d="M246 706L122 0H8L132 706H246ZM268 829L254 749L53 862L69 951L268 829Z" />
<glyph unicode="&#xcd;" glyph-name="Iacute" horiz-adv-x="252" d="M246 706L122 0H8L132 706H246ZM375 862L134 749L148 829L391 951L375 862Z" />
<glyph unicode="&#xce;" glyph-name="Icircumflex" horiz-adv-x="252" d="M248 706L124 0H10L134 706H248ZM218 846L60 762L74 840L232 923L360 840L346 762L218 846Z" />
<glyph unicode="&#xcf;" glyph-name="Idieresis" horiz-adv-x="252" d="M251 706L127 0H13L137 706H251ZM74 852T94 871T141 891Q162 891 175 879T189 846Q189 819 169 799T121 779Q101 779 88 792T74 825Q74 852 94 871ZM251 852T271 871T317 891Q338 891 351
879T365 846Q365 819 345 799T298 779Q277 779 264 791T251 824Q251 852 271 871Z" />
<glyph unicode="&#xd0;" glyph-name="Eth" horiz-adv-x="742" d="M541 706T622 633T704 432Q704 392 697 354Q678 247 621 167T472 44T264 0H28L82 308H-3L14 400H98L152 706H388Q541 706 622 633ZM586 386T586 415Q586 506 529 555T361 605H249L213 400H398L381
308H196L160 103H273Q400 103 480 169T580 354Q586 386 586 415Z" />
<glyph unicode="&#xd1;" glyph-name="Ntilde" horiz-adv-x="709" d="M580 0H466L215 521L123 0H9L133 705H247L498 182L590 705H704L580 0ZM413 880T427 874T460 853Q474 842 485 837T509 832Q527 832 541 844T562 879H623Q604 821 571 792T494 763Q473 763 458
770T424 790Q407 801 399 805T377 810Q341 810 325 763H265Q304 880 393 880Q413 880 427 874Z" />
<glyph unicode="&#xd2;" glyph-name="Ograve" horiz-adv-x="783" d="M787 715T855 678T959 573T996 416Q996 374 989 335Q972 235 917 157T779 36T595 -8Q501 -8 433 29T329 133T292 289Q292 327 300 373Q317 473 372 550T511 671T694 715Q787 715 855 678ZM619
609T562 579T465 492T412 359Q407 333 407 300Q407 206 460 153T605 99Q671 99 728 129T824 216T877 349Q882 375 882 409Q882 502 829 555T685 609Q619 609 562 579ZM534 829L520 749L319 862L335 951L534 829Z" />
<glyph unicode="&#xd3;" glyph-name="Oacute" horiz-adv-x="783" d="M783 715T851 678T955 573T992 416Q992 374 985 335Q968 235 913 157T775 36T591 -8Q497 -8 429 29T325 133T288 289Q288 327 296 373Q313 473 368 550T507 671T690 715Q783 715 851 678ZM615
609T558 579T461 492T408 359Q403 333 403 300Q403 206 456 153T601 99Q667 99 724 129T820 216T873 349Q878 375 878 409Q878 502 825 555T681 609Q615 609 558 579ZM636 862L395 749L409 829L652 951L636 862Z" />
<glyph unicode="&#xd4;" glyph-name="Ocircumflex" horiz-adv-x="783" d="M786 715T854 678T958 573T995 416Q995 374 988 335Q971 235 916 157T778 36T594 -8Q500 -8 432 29T328 133T291 289Q291 327 299 373Q316 473 371 550T510 671T693 715Q786 715 854 678ZM618
609T561 579T464 492T411 359Q406 333 406 300Q406 206 459 153T604 99Q670 99 727 129T823 216T876 349Q881 375 881 409Q881 502 828 555T684 609Q618 609 561 579ZM479 846L321 762L335 840L493 923L621 840L607 762L479 846Z" />
<glyph unicode="&#xd5;" glyph-name="Otilde" horiz-adv-x="783" d="M534 715T602 678T706 573T743 416Q743 374 736 335Q719 235 664 157T526 36T342 -8Q248 -8 180 29T76 133T39 289Q39 327 47 373Q64 473 119 550T258 671T441 715Q534 715 602 678ZM366 609T309
579T212 492T159 359Q154 333 154 300Q154 206 207 153T352 99Q418 99 475 129T571 216T624 349Q629 375 629 409Q629 502 576 555T432 609Q366 609 309 579ZM451 880T465 874T498 853Q512 842 523 837T547 832Q565 832 579 844T600 879H661Q642 821 609 792T532
763Q511 763 496 770T462 790Q445 801 437 805T415 810Q379 810 363 763H303Q342 880 431 880Q451 880 465 874Z" />
<glyph unicode="&#xd6;" glyph-name="Odieresis" horiz-adv-x="783" d="M788 715T856 678T960 573T997 416Q997 374 990 335Q973 235 918 157T780 36T596 -8Q502 -8 434 29T330 133T293 289Q293 327 301 373Q318 473 373 550T512 671T695 715Q788 715 856 678ZM620
609T563 579T466 492T413 359Q408 333 408 300Q408 206 461 153T606 99Q672 99 729 129T825 216T878 349Q883 375 883 409Q883 502 830 555T686 609Q620 609 563 579ZM336 852T356 871T403 891Q424 891 437 879T451 846Q451 819 431 799T383 779Q363 779 350 792T336
825Q336 852 356 871ZM513 852T533 871T579 891Q600 891 613 879T627 846Q627 819 607 799T560 779Q539 779 526 791T513 824Q513 852 533 871Z" />
<glyph unicode="&#xd7;" glyph-name="multiply" horiz-adv-x="522" d="M340 366L468 210L379 135L251 290L70 136L9 209L190 364L64 516L154 592L279 440L456 591L517 518L340 366Z" />
<glyph unicode="&#xd8;" glyph-name="Oslash" horiz-adv-x="790" d="M692 598Q743 525 743 417Q743 376 736 335Q719 235 664 157T526 36T342 -8Q273 -8 218 12T122 71L46 0H-22L92 106Q39 182 39 289Q39 327 47 373Q64 473 119 550T258 671T441 715Q511 715 567
694T663 632L745 708H811L692 598ZM154 333T154 300Q154 234 181 187L578 554Q523 609 432 609Q366 609 309 579T212 492T159 359Q154 333 154 300ZM630 381T630 409Q630 470 605 517L209 151Q261 99 352 99Q418 99 475 129T571 216T624 349Q630 381 630 409Z"
/>
<glyph unicode="&#xd9;" glyph-name="Ugrave" horiz-adv-x="671" d="M494 706L421 287Q415 256 415 230Q415 165 449 133T545 101Q619 101 668 147T735 287L809 706H923L850 287Q824 142 736 68T524 -7Q420 -7 360 47T299 209Q299 248 306 287L380 706H494ZM473
829L459 749L258 862L274 951L473 829Z" />
<glyph unicode="&#xda;" glyph-name="Uacute" horiz-adv-x="671" d="M494 706L421 287Q415 256 415 230Q415 165 449 133T545 101Q619 101 668 147T735 287L809 706H923L850 287Q824 142 736 68T524 -7Q420 -7 360 47T299 209Q299 248 306 287L380 706H494ZM580
862L339 749L353 829L596 951L580 862Z" />
<glyph unicode="&#xdb;" glyph-name="Ucircumflex" horiz-adv-x="671" d="M496 706L423 287Q417 256 417 230Q417 165 451 133T547 101Q621 101 670 147T737 287L811 706H925L852 287Q826 142 738 68T526 -7Q422 -7 362 47T301 209Q301 248 308 287L382 706H496ZM423
846L265 762L279 840L437 923L565 840L551 762L423 846Z" />
<glyph unicode="&#xdc;" glyph-name="Udieresis" horiz-adv-x="671" d="M243 706L170 287Q164 256 164 230Q164 165 198 133T294 101Q368 101 417 147T484 287L558 706H672L599 287Q573 142 485 68T273 -7Q169 -7 109 47T48 209Q48 248 55 287L129 706H243ZM279
852T299 871T346 891Q367 891 380 879T394 846Q394 819 374 799T326 779Q306 779 293 792T279 825Q279 852 299 871ZM456 852T476 871T522 891Q543 891 556 879T570 846Q570 819 550 799T503 779Q482 779 469 791T456 824Q456 852 476 871Z" />
<glyph unicode="&#xdd;" glyph-name="Yacute" horiz-adv-x="618" d="M916 706L602 257L557 0H442L487 257L330 706H462L566 379L786 706H916ZM553 862L312 749L326 829L569 951L553 862Z" />
<glyph unicode="&#xde;" glyph-name="Thorn" horiz-adv-x="585" d="M147 143L121 0H7L131 706H245L220 566H346Q452 566 505 522T559 401Q559 381 554 353Q537 255 464 199T272 143H147ZM416 232T438 353Q441 370 441 385Q441 429 412 452T319 476H206L162 232H276Q416
232 438 353Z" />
<glyph unicode="&#xdf;" glyph-name="germandbls" horiz-adv-x="670" d="M564 342T591 299T619 202Q619 182 614 154Q601 83 544 37T400 -9Q315 -9 266 34T217 155Q217 166 219 188H314Q313 181 313 168Q313 132 333 112T396 91Q441 91 469 116T504 176Q506 190
506 197Q506 225 491 248T441 297L302 398L311 441L343 456Q375 472 393 493T416 546Q418 560 418 565Q418 601 396 622T334 644Q285 644 253 616T212 535L118 0H3L99 539Q116 639 184 694T361 750Q447 750 495 711T543 609Q543 555 510 513T412 445L507 379Q564
342 591 299Z" />
<glyph unicode="&#xe0;" glyph-name="agrave" horiz-adv-x="676" d="M416 558T463 521T522 423L545 551H659L561 0H447L470 128Q438 67 379 30T244 -7Q148 -7 93 51T38 211Q38 249 45 285Q60 369 102 430T206 525T339 558Q416 558 463 521ZM285 458T231 409T161
276Q157 255 157 231Q157 166 194 130T296 94Q369 94 425 143T496 276Q500 296 500 318Q500 382 462 420T361 458Q285 458 231 409ZM440 674L426 594L225 707L241 796L440 674Z" />
<glyph unicode="&#xe1;" glyph-name="aacute" horiz-adv-x="676" d="M416 558T463 521T522 423L545 551H659L561 0H447L470 128Q438 67 379 30T244 -7Q148 -7 93 51T38 211Q38 249 45 285Q60 369 102 430T206 525T339 558Q416 558 463 521ZM285 458T231 409T161
276Q157 255 157 231Q157 166 194 130T296 94Q369 94 425 143T496 276Q500 296 500 318Q500 382 462 420T361 458Q285 458 231 409ZM547 707L306 594L320 674L563 796L547 707Z" />
<glyph unicode="&#xe2;" glyph-name="acircumflex" horiz-adv-x="676" d="M665 558T712 521T771 423L794 551H908L810 0H696L719 128Q687 67 628 30T493 -7Q397 -7 342 51T287 211Q287 249 294 285Q309 369 351 430T455 525T588 558Q665 558 712 521ZM534 458T480
409T410 276Q406 255 406 231Q406 166 443 130T545 94Q618 94 674 143T745 276Q749 296 749 318Q749 382 711 420T610 458Q534 458 480 409ZM381 691L223 607L237 685L395 768L523 685L509 607L381 691Z" />
<glyph unicode="&#xe3;" glyph-name="atilde" horiz-adv-x="676" d="M422 558T469 521T528 423L551 551H665L567 0H453L476 128Q444 67 385 30T250 -7Q154 -7 99 51T44 211Q44 249 51 285Q66 369 108 430T212 525T345 558Q422 558 469 521ZM291 458T237 409T167
276Q163 255 163 231Q163 166 200 130T302 94Q375 94 431 143T502 276Q506 296 506 318Q506 382 468 420T367 458Q291 458 237 409ZM361 725T375 719T408 698Q422 687 433 682T457 677Q475 677 489 689T510 724H571Q552 666 519 637T442 608Q421 608 406 615T372
635Q355 646 347 650T325 655Q289 655 273 608H213Q252 725 341 725Q361 725 375 719Z" />
<glyph unicode="&#xe4;" glyph-name="adieresis" horiz-adv-x="676" d="M421 558T468 521T527 423L550 551H664L566 0H452L475 128Q443 67 384 30T249 -7Q153 -7 98 51T43 211Q43 249 50 285Q65 369 107 430T211 525T344 558Q421 558 468 521ZM290 458T236 409T166
276Q162 255 162 231Q162 166 199 130T301 94Q374 94 430 143T501 276Q505 296 505 318Q505 382 467 420T366 458Q290 458 236 409ZM246 697T266 716T313 736Q334 736 347 724T361 691Q361 664 341 644T293 624Q273 624 260 637T246 670Q246 697 266 716ZM423 697T443
716T489 736Q510 736 523 724T537 691Q537 664 517 644T470 624Q449 624 436 636T423 669Q423 697 443 716Z" />
<glyph unicode="&#xe5;" glyph-name="aring" horiz-adv-x="676" d="M661 558T708 521T767 423L790 551H904L806 0H692L715 128Q683 67 624 30T489 -7Q393 -7 338 51T283 211Q283 249 290 285Q305 369 347 430T451 525T584 558Q661 558 708 521ZM530 458T476 409T406
276Q402 255 402 231Q402 166 439 130T541 94Q614 94 670 143T741 276Q745 296 745 318Q745 382 707 420T606 458Q530 458 476 409ZM435 824T460 801T486 737Q486 697 468 667T420 621T355 605Q314 605 289 628T263 692Q263 698 265 714Q274 764 310 794T394 824Q435
824 460 801ZM360 775T341 759T316 714Q315 709 315 701Q315 679 328 667T364 654Q393 654 413 674T434 728Q434 750 421 762T385 775Q360 775 341 759Z" />
<glyph unicode="&#xe6;" glyph-name="ae" horiz-adv-x="1098" d="M958 558T1011 503T1065 358Q1065 326 1060 302Q1054 273 1047 253H607Q605 229 605 220Q605 152 643 118T742 84Q803 84 849 113T915 192H1036Q1004 103 931 48T762 -7Q687 -7 639 28T581 129L558
0H444L467 128Q435 67 375 30T240 -7Q146 -7 91 50T35 208Q35 240 41 276Q56 362 99 426T205 524T340 558Q415 558 461 521T519 423L542 551H656L633 422Q665 488 724 523T862 558Q958 558 1011 503ZM951 330T951 347Q951 406 912 436T812 467Q741 467 688 427T615
305H946Q951 330 951 347ZM497 296T497 318Q497 382 459 420T357 458Q281 458 227 410T158 276Q154 255 154 231Q154 166 191 130T293 94Q366 94 422 143T493 276Q497 296 497 318Z" />
<glyph unicode="&#xe7;" glyph-name="ccedilla" horiz-adv-x="620" d="M473 558T534 502T595 348H474Q474 400 441 429T349 459Q284 459 231 412T162 276Q158 253 158 228Q158 161 193 127T285 92Q342 92 386 122T449 204H570Q536 107 456 50T269 -7Q164 -7 102
53T40 218Q40 249 46 285Q61 369 106 430T219 525T365 558Q473 558 534 502ZM344 -58T375 -78T407 -143Q407 -150 405 -164Q396 -214 356 -238T261 -262H145L156 -198H259Q326 -198 326 -152Q326 -116 273 -116H214L236 7H306L295 -60Q344 -58 375 -78Z" />
<glyph unicode="&#xe8;" glyph-name="egrave" horiz-adv-x="621" d="M688 558T739 532T816 460T843 354Q843 332 838 302Q832 273 825 253H401Q399 240 399 218Q399 151 434 119T528 86Q585 86 629 115T692 192H814Q782 103 703 48T517 -7Q413 -7 351 52T289 214Q289
247 295 281Q310 366 356 428T469 524T617 558Q688 558 739 532ZM729 325T729 349Q729 407 693 437T601 467Q534 467 482 426T412 305H724Q729 325 729 349ZM423 674L409 594L208 707L224 796L423 674Z" />
<glyph unicode="&#xe9;" glyph-name="eacute" horiz-adv-x="621" d="M688 558T739 532T816 460T843 354Q843 332 838 302Q832 273 825 253H401Q399 240 399 218Q399 151 434 119T528 86Q585 86 629 115T692 192H814Q782 103 703 48T517 -7Q413 -7 351 52T289 214Q289
247 295 281Q310 366 356 428T469 524T617 558Q688 558 739 532ZM729 325T729 349Q729 407 693 437T601 467Q534 467 482 426T412 305H724Q729 325 729 349ZM529 707L288 594L302 674L545 796L529 707Z" />
<glyph unicode="&#xea;" glyph-name="ecircumflex" horiz-adv-x="622" d="M435 558T486 532T563 460T590 354Q590 332 585 302Q579 273 572 253H148Q146 240 146 218Q146 151 181 119T275 86Q332 86 376 115T439 192H561Q529 103 450 48T264 -7Q160 -7 98 52T36
214Q36 247 42 281Q57 366 103 428T216 524T364 558Q435 558 486 532ZM476 325T476 349Q476 407 440 437T348 467Q281 467 229 426T159 305H471Q476 325 476 349ZM373 691L215 607L229 685L387 768L515 685L501 607L373 691Z" />
<glyph unicode="&#xeb;" glyph-name="edieresis" horiz-adv-x="621" d="M438 558T489 532T566 460T593 354Q593 332 588 302Q582 273 575 253H151Q149 240 149 218Q149 151 184 119T278 86Q335 86 379 115T442 192H564Q532 103 453 48T267 -7Q163 -7 101 52T39
214Q39 247 45 281Q60 366 106 428T219 524T367 558Q438 558 489 532ZM479 325T479 349Q479 407 443 437T351 467Q284 467 232 426T162 305H474Q479 325 479 349ZM229 697T249 716T296 736Q317 736 330 724T344 691Q344 664 324 644T276 624Q256 624 243 637T229
670Q229 697 249 716ZM406 697T426 716T472 736Q493 736 506 724T520 691Q520 664 500 644T453 624Q432 624 419 636T406 669Q406 697 426 716Z" />
<glyph unicode="&#xec;" glyph-name="igrave" horiz-adv-x="252" d="M231 551L133 0H18L116 551H231ZM509 674L495 594L294 707L310 796L509 674Z" />
<glyph unicode="&#xed;" glyph-name="iacute" horiz-adv-x="252" d="M231 551L133 0H18L116 551H231ZM360 707L119 594L133 674L376 796L360 707Z" />
<glyph unicode="&#xee;" glyph-name="icircumflex" horiz-adv-x="252" d="M234 551L136 0H21L119 551H234ZM449 691L291 607L305 685L463 768L591 685L577 607L449 691Z" />
<glyph unicode="&#xef;" glyph-name="idieresis" horiz-adv-x="252" d="M237 551L139 0H24L122 551H237ZM315 697T335 716T382 736Q403 736 416 724T430 691Q430 664 410 644T362 624Q342 624 329 637T315 670Q315 697 335 716ZM492 697T512 716T558 736Q579 736
592 724T606 691Q606 664 586 644T539 624Q518 624 505 636T492 669Q492 697 512 716Z" />
<glyph unicode="&#xf0;" glyph-name="eth" horiz-adv-x="639" d="M606 695L520 668Q606 547 606 402Q606 362 598 312Q580 210 532 138T414 30T264 -7Q192 -7 138 21T55 101T25 223Q25 254 31 285Q46 368 91 430T204 526T351 560Q406 560 446 532T500 449Q494
558 439 643L303 601L311 644L416 676Q393 705 357 740H460Q473 727 495 701L614 738L606 695ZM479 297T479 321Q479 388 441 424T344 460Q273 460 218 415T148 284Q144 261 144 237Q144 168 182 131T282 93Q351 93 405 141T475 276Q479 297 479 321Z" />
<glyph unicode="&#xf1;" glyph-name="ntilde" horiz-adv-x="653" d="M511 560T558 515T605 384Q605 354 599 321L543 0H429L483 309Q487 328 487 349Q487 405 456 434T368 464Q300 464 252 421T189 293V296L137 0H22L119 551H234L213 429Q245 492 302 526T430
560Q511 560 558 515ZM360 725T374 719T407 698Q421 687 432 682T456 677Q474 677 488 689T509 724H570Q551 666 518 637T441 608Q420 608 405 615T371 635Q354 646 346 650T324 655Q288 655 272 608H212Q251 725 340 725Q360 725 374 719Z" />
<glyph unicode="&#xf2;" glyph-name="ograve" horiz-adv-x="642" d="M479 558T544 498T609 331Q609 301 603 266Q588 183 541 121T426 26T278 -7Q207 -7 153 20T68 98T38 221Q38 251 44 285Q59 368 106 430T222 525T371 558Q479 558 544 498ZM288 459T232 412T160
276Q156 253 156 230Q156 162 194 128T291 93Q360 93 415 139T487 276Q491 297 491 321Q491 389 453 424T356 459Q288 459 232 412ZM437 674L423 594L222 707L238 796L437 674Z" />
<glyph unicode="&#xf3;" glyph-name="oacute" horiz-adv-x="642" d="M479 558T544 498T609 331Q609 301 603 266Q588 183 541 121T426 26T278 -7Q207 -7 153 20T68 98T38 221Q38 251 44 285Q59 368 106 430T222 525T371 558Q479 558 544 498ZM288 459T232 412T160
276Q156 253 156 230Q156 162 194 128T291 93Q360 93 415 139T487 276Q491 297 491 321Q491 389 453 424T356 459Q288 459 232 412ZM544 707L303 594L317 674L560 796L544 707Z" />
<glyph unicode="&#xf4;" glyph-name="ocircumflex" horiz-adv-x="642" d="M477 558T542 498T607 331Q607 301 601 266Q586 183 539 121T424 26T276 -7Q205 -7 151 20T66 98T36 221Q36 251 42 285Q57 368 104 430T220 525T369 558Q477 558 542 498ZM286 459T230
412T158 276Q154 253 154 230Q154 162 192 128T289 93Q358 93 413 139T485 276Q489 297 489 321Q489 389 451 424T354 459Q286 459 230 412ZM382 691L224 607L238 685L396 768L524 685L510 607L382 691Z" />
<glyph unicode="&#xf5;" glyph-name="otilde" horiz-adv-x="642" d="M486 558T551 498T616 331Q616 301 610 266Q595 183 548 121T433 26T285 -7Q214 -7 160 20T75 98T45 221Q45 251 51 285Q66 368 113 430T229 525T378 558Q486 558 551 498ZM295 459T239 412T167
276Q163 253 163 230Q163 162 201 128T298 93Q367 93 422 139T494 276Q498 297 498 321Q498 389 460 424T363 459Q295 459 239 412ZM358 725T372 719T405 698Q419 687 430 682T454 677Q472 677 486 689T507 724H568Q549 666 516 637T439 608Q418 608 403 615T369
635Q352 646 344 650T322 655Q286 655 270 608H210Q249 725 338 725Q358 725 372 719Z" />
<glyph unicode="&#xf6;" glyph-name="odieresis" horiz-adv-x="642" d="M484 558T549 498T614 331Q614 301 608 266Q593 183 546 121T431 26T283 -7Q212 -7 158 20T73 98T43 221Q43 251 49 285Q64 368 111 430T227 525T376 558Q484 558 549 498ZM293 459T237 412T165
276Q161 253 161 230Q161 162 199 128T296 93Q365 93 420 139T492 276Q496 297 496 321Q496 389 458 424T361 459Q293 459 237 412ZM243 697T263 716T310 736Q331 736 344 724T358 691Q358 664 338 644T290 624Q270 624 257 637T243 670Q243 697 263 716ZM420 697T440
716T486 736Q507 736 520 724T534 691Q534 664 514 644T467 624Q446 624 433 636T420 669Q420 697 440 716Z" />
<glyph unicode="&#xf7;" glyph-name="divide" horiz-adv-x="571" d="M401 648L378 522H248L271 648H401ZM550 413L531 309H21L40 413H550ZM322 202L300 77H170L192 202H322Z" />
<glyph unicode="&#xf8;" glyph-name="oslash" horiz-adv-x="635" d="M559 471Q601 415 601 332Q601 301 595 266Q580 183 533 121T418 26T270 -7Q218 -7 175 7T100 50L45 0H-15L72 80Q30 138 30 220Q30 251 36 285Q51 368 98 430T214 525T363 558Q467 558 532
501L586 551H646L559 471ZM147 248T147 230Q147 194 161 162L446 423Q409 459 348 459Q280 459 224 412T152 276Q147 248 147 230ZM483 297T483 321Q483 361 469 389L185 129Q221 93 283 93Q352 93 407 139T479 276Q483 297 483 321Z" />
<glyph unicode="&#xf9;" glyph-name="ugrave" horiz-adv-x="645" d="M623 551L526 0H411L432 120Q399 59 342 26T216 -8Q134 -8 87 38T40 170Q40 198 46 231L103 551H217L162 243Q158 223 158 202Q158 146 189 117T277 87Q345 87 393 131T456 259V255L508 551H623ZM432
674L418 594L217 707L233 796L432 674Z" />
<glyph unicode="&#xfa;" glyph-name="uacute" horiz-adv-x="645" d="M623 551L526 0H411L432 120Q399 59 342 26T216 -8Q134 -8 87 38T40 170Q40 198 46 231L103 551H217L162 243Q158 223 158 202Q158 146 189 117T277 87Q345 87 393 131T456 259V255L508 551H623ZM539
707L298 594L312 674L555 796L539 707Z" />
<glyph unicode="&#xfb;" glyph-name="ucircumflex" horiz-adv-x="645" d="M626 551L529 0H414L435 120Q402 59 345 26T219 -8Q137 -8 90 38T43 170Q43 198 49 231L106 551H220L165 243Q161 223 161 202Q161 146 192 117T280 87Q348 87 396 131T459 259V255L511
551H626ZM382 691L224 607L238 685L396 768L524 685L510 607L382 691Z" />
<glyph unicode="&#xfc;" glyph-name="udieresis" horiz-adv-x="645" d="M629 551L532 0H417L438 120Q405 59 348 26T222 -8Q140 -8 93 38T46 170Q46 198 52 231L109 551H223L168 243Q164 223 164 202Q164 146 195 117T283 87Q351 87 399 131T462 259V255L514 551H629ZM238
697T258 716T305 736Q326 736 339 724T353 691Q353 664 333 644T285 624Q265 624 252 637T238 670Q238 697 258 716ZM415 697T435 716T481 736Q502 736 515 724T529 691Q529 664 509 644T462 624Q441 624 428 636T415 669Q415 697 435 716Z" />
<glyph unicode="&#xfd;" glyph-name="yacute" horiz-adv-x="585" d="M411 551L505 146L729 551H856L379 -262H252L420 13L283 551H411ZM520 707L279 594L293 674L536 796L520 707Z" />
<glyph unicode="&#xfe;" glyph-name="thorn" horiz-adv-x="675" d="M527 557T584 498T641 336Q641 302 636 274Q621 186 578 123T472 26T339 -7Q266 -7 219 27T157 121L90 -262H-25L152 740H267L213 436Q248 493 303 525T429 557Q527 557 584 498ZM394 94T449
141T519 274Q523 295 523 318Q523 385 485 421T384 457Q338 457 296 436T225 373T185 276Q181 256 181 234Q181 168 220 131T321 94Q394 94 449 141Z" />
<glyph unicode="&#xff;" glyph-name="ydieresis" horiz-adv-x="585" d="M171 551L265 146L489 551H616L139 -262H12L180 13L43 551H171ZM207 697T227 716T274 736Q295 736 308 724T322 691Q322 664 302 644T254 624Q234 624 221 637T207 670Q207 697 227 716ZM384
697T404 716T450 736Q471 736 484 724T498 691Q498 664 478 644T431 624Q410 624 397 636T384 669Q384 697 404 716Z" />
<glyph unicode="&#x2013;" glyph-name="endash" horiz-adv-x="629" d="M590 410L573 314H38L56 410H590Z" />
<glyph unicode="&#x2014;" glyph-name="emdash" horiz-adv-x="845" d="M806 410L789 314H38L56 410H806Z" />
<glyph unicode="&#x2018;" glyph-name="quoteleft" horiz-adv-x="197" d="M32 608T32 620Q32 650 37 680Q48 739 82 771T172 804L164 757Q138 757 124 743T103 698L100 677H154L137 580H34Q32 608 32 620Z" />
<glyph unicode="&#x2019;" glyph-name="quoteright" horiz-adv-x="197" d="M165 776T165 765Q165 736 160 704Q149 644 115 612T25 580L34 628Q84 628 94 686L98 707H44L60 804H163Q165 776 165 765Z" />
<glyph unicode="&#x201a;" glyph-name="quotesinglbase" horiz-adv-x="203" d="M395 57T395 25Q395 -46 359 -95T253 -144L261 -98Q286 -98 300 -85T319 -41L321 -32H264L283 78H390Q395 57 395 25Z" />
<glyph unicode="&#x201c;" glyph-name="quotedblleft" horiz-adv-x="348" d="M32 608T32 620Q32 650 37 680Q48 739 82 771T172 804L164 757Q138 757 124 743T103 698L100 677H154L137 580H34Q32 608 32 620ZM183 608T183 619Q183 650 188 680Q199 739 233 771T323
804L315 757Q289 757 275 743T254 698L251 677H305L288 580H185Q183 608 183 619Z" />
<glyph unicode="&#x201d;" glyph-name="quotedblright" horiz-adv-x="348" d="M165 776T165 765Q165 736 160 704Q149 644 115 612T25 580L34 628Q84 628 94 686L98 707H44L60 804H163Q165 776 165 765ZM316 776T316 765Q316 736 311 704Q300 644 266 612T176
580L185 628Q211 628 225 642T245 686L248 707H194L211 804H314Q316 776 316 765Z" />
<glyph unicode="&#x201e;" glyph-name="quotedblbase" horiz-adv-x="348" d="M135 69T135 58Q135 29 130 -3Q119 -63 85 -95T-5 -127L4 -79Q54 -79 64 -21L68 0H14L30 97H133Q135 69 135 58ZM286 69T286 58Q286 29 281 -3Q270 -63 236 -95T146 -127L155 -79Q181
-79 195 -65T215 -21L218 0H164L181 97H284Q286 69 286 58Z" />
<glyph unicode="&#x2022;" glyph-name="bullet" horiz-adv-x="388" d="M61 351T83 387T141 444T217 465Q266 465 296 435T327 357Q327 316 305 281T247 224T171 203Q122 203 92 233T61 310Q61 351 83 387Z" />
<glyph unicode="&#x2039;" glyph-name="guilsinglleft" horiz-adv-x="297" d="M107 120L45 295L169 470H278L152 295L216 120H107Z" />
<glyph unicode="&#x203a;" glyph-name="guilsinglright" horiz-adv-x="297" d="M146 295L81 470H191L252 295L129 120H19L146 295Z" />
</font>
</defs>
</svg>
